<?xml version="1.0" encoding="UTF-8" standalone="no"?>
<svg
   width="1314.155"
   height="325.91168"
   viewBox="0 0 1314.155 325.91168"
   version="1.1"
   id="svg1"
   sodipodi:docname="log-vector.svg"
   xmlns:inkscape="http://www.inkscape.org/namespaces/inkscape"
   xmlns:sodipodi="http://sodipodi.sourceforge.net/DTD/sodipodi-0.dtd"
   xmlns="http://www.w3.org/2000/svg"
   xmlns:svg="http://www.w3.org/2000/svg">
  <defs
     id="defs1" />
  <sodipodi:namedview
     id="namedview1"
     pagecolor="#ffffff"
     bordercolor="#000000"
     borderopacity="0.25"
     inkscape:showpageshadow="2"
     inkscape:pageopacity="0.0"
     inkscape:pagecheckerboard="0"
     inkscape:deskcolor="#d1d1d1" />
  <path
     d="M 3.461,2.503 C 0.692,4.882 0.651,5.086 0.328,17.901 L 0,30.887 l 2.994,3.353 2.994,3.352 25.583,0.312 25.584,0.313 v 52.749 c 0,51.703 0.04,52.792 2.039,54.937 1.972,2.117 2.722,2.188 22.75,2.174 11.391,-0.009 21.206,-0.346 21.811,-0.75 3.218,-2.149 3.4,-5.202 3.4,-57.169 V 38.092 h 23.032 c 24.47,0 28.643,-0.655 30.888,-4.85 0.614,-1.147 1.08,-7.599 1.08,-14.948 0,-12.636 -0.06,-12.989 -2.636,-15.566 L 156.882,0.092 H 81.574 6.267 L 3.461,2.503 m 189.051,-1.45 c -5.551,2.32 -5.357,-0.369 -5.357,74.125 v 68.641 l 2.636,2.637 2.637,2.636 h 19.909 c 19.805,0 19.922,-0.013 22.363,-2.455 l 2.455,-2.454 V 118.137 92.092 h 29 29 v 25.854 25.854 l 2.452,2.646 2.453,2.646 h 20.093 c 19.722,0 20.136,-0.043 22.429,-2.336 2.31,-2.31 2.344,-2.668 3.098,-33.25 0.419,-17.003 0.476,-48.206 0.127,-69.341 -0.623,-37.69 -0.677,-38.471 -2.818,-40.75 -2.145,-2.283 -2.53,-2.323 -22.554,-2.323 -20.295,0 -20.38,0.009 -22.825,2.455 l -2.455,2.454 V 33.047 60.092 H 266.701 238.247 L 237.951,33.113 237.655,6.134 234.885,3.363 232.114,0.592 213.385,0.374 C 203.083,0.255 193.691,0.56 192.512,1.053 m 189.279,1.675 -2.636,2.637 v 68.911 68.911 l 2.646,2.453 2.646,2.452 h 73.277 73.278 l 3.076,-2.589 3.077,-2.589 v -13.488 -13.488 l -2.923,-2.923 -2.923,-2.923 h -52.077 -52.077 v -10 -10 h 46.944 46.944 l 2.794,-2.403 c 2.557,-2.199 2.826,-3.094 3.164,-10.534 0.229,-5.054 -0.104,-9.271 -0.879,-11.144 -2.455,-5.925 -2.403,-5.919 -52.917,-5.919 h -46.05 v -11 -11 l 49.75,-0.006 c 31.15,-0.003 51.141,-0.391 53.471,-1.038 6.086,-1.691 6.779,-3.592 6.779,-18.59 V 5.27 l -3.077,-2.589 -3.076,-2.589 h -73.287 -73.287 l -2.637,2.636 M 566.61,2.547 564.155,5.001 v 69.091 69.091 l 2.455,2.454 c 2.443,2.444 2.547,2.455 22.545,2.455 19.998,0 20.102,-0.011 22.545,-2.455 2.389,-2.388 2.455,-2.859 2.455,-17.5 v -15.045 l 19.75,0.002 19.75,0.002 3.151,4.748 c 1.733,2.611 6.059,9.286 9.613,14.832 9.83,15.341 8.679,14.856 36.07,15.219 23.708,0.314 25.666,0.021 25.666,-3.839 0,-0.985 -6.821,-10.465 -15.158,-21.066 l -15.158,-19.276 2.408,-1.547 c 9.216,-5.922 17.953,-17.615 21.5,-28.778 2.127,-6.694 2.948,-24.42 1.461,-31.56 C 720.451,28.591 710.161,14.082 698.59,7.118 687.308,0.327 686.1,0.214 624.36,0.15 L 569.064,0.092 566.61,2.547 M 796.454,2.052 c -1.761,1.073 -3.845,3.209 -4.632,4.746 -0.787,1.537 -11.006,30.244 -22.711,63.794 -23.3,66.79 -24.225,70.322 -19.617,74.93 l 2.57,2.57 h 18.871 c 22.281,0 21.335,0.47 25.68,-12.762 l 2.712,-8.261 38.572,0.261 38.571,0.262 2.202,6.527 c 2.858,8.473 5.02,12.581 7.028,13.352 0.89,0.341 9.822,0.621 19.848,0.621 16.931,0 18.385,-0.145 20.406,-2.028 2.664,-2.481 3.624,-5.976 2.889,-10.51 -0.307,-1.887 -7.982,-24.925 -17.058,-51.196 C 883.902,3.643 885.127,6.927 881.575,3.342 l -3.22,-3.25 -39.35,0.004 c -37.264,0.003 -39.52,0.107 -42.551,1.956 m 159.397,0.446 -2.696,2.499 v 68.911 68.911 l 2.636,2.637 2.637,2.636 h 19.909 c 26.554,0 24.818,1.606 24.818,-22.955 v -18.045 h 31.29 c 34.457,0 37.784,-0.415 49.71,-6.192 8.1,-3.925 18.342,-13.993 22.693,-22.308 10.89,-20.817 7.451,-46.287 -8.394,-62.151 -5.964,-5.971 -11.756,-9.6 -21.179,-13.269 L 1070.655,0.594 1014.601,0.297 958.546,0 955.851,2.498 m 166.72,0.087 c -1.977,1.977 -2.284,2.885 -1.482,4.383 0.556,1.039 17.223,17.995 37.038,37.68 l 36.028,35.79 v 31.372 31.373 l 2.455,2.454 c 2.443,2.444 2.547,2.455 22.545,2.455 19.998,0 20.102,-0.011 22.545,-2.455 l 2.455,-2.454 0.054,-31.796 0.055,-31.795 34.945,-35.936 c 24.994,-25.702 34.946,-36.579 34.946,-38.193 0,-4.826 -2.666,-5.371 -26.272,-5.371 -16.888,0 -22.448,0.321 -24.57,1.418 -1.509,0.78 -11.949,10.001 -23.2,20.491 -11.252,10.49 -20.704,19.077 -21.004,19.082 -0.3,0.005 -9.216,-8.203 -19.814,-18.241 -10.598,-10.038 -21.111,-19.263 -23.362,-20.5 -3.915,-2.153 -5.106,-2.25 -27.481,-2.25 h -23.388 l -2.493,2.493 M 614.155,59.592 v 21.5 l 11.25,-0.026 c 28.242,-0.065 39.332,-3.005 44.501,-11.798 2.309,-3.927 2.749,-5.825 2.749,-11.849 0,-7.962 -1.491,-10.994 -7.379,-15.002 -5.015,-3.414 -11.788,-4.325 -32.17,-4.325 h -18.951 v 21.5 m 389.348,-10.844 c 0.359,5.86 0.652,14.86 0.652,20 v 9.344 h 17.282 c 18.691,0 25.263,-1.06 31.017,-5.003 5.525,-3.786 8.072,-8.398 8.484,-15.366 0.321,-5.424 0.022,-6.662 -2.597,-10.737 -1.961,-3.052 -4.453,-5.329 -7.388,-6.75 -4.114,-1.991 -5.984,-2.144 -26.266,-2.144 h -21.836 l 0.652,10.656 M 818.802,69.629 c -4.865,14.629 -8.643,26.8 -8.396,27.047 0.246,0.246 12.841,0.328 27.988,0.182 l 27.54,-0.266 -8.202,-26.5 -8.202,-26.5 -10.942,-0.28 -10.941,-0.281 -8.845,26.598 M 464.936,198.088 c -12.666,1.624 -25.28,7.357 -35.036,15.923 -5.313,4.664 -12.572,16.049 -15.559,24.4 -2.324,6.499 -2.574,8.654 -2.627,22.681 -0.052,13.783 0.209,16.317 2.357,22.876 3.049,9.308 10.186,20.308 17.1,26.357 6.388,5.588 17.048,11.116 25.984,13.475 11.214,2.961 36.387,2.074 51.25,-1.806 l 3.75,-0.979 v -6.824 -6.824 l -7.698,1.834 c -29.3,6.981 -51.762,3.526 -65.336,-10.048 -14.323,-14.323 -18.076,-41.851 -8.545,-62.67 3.054,-6.671 11.926,-16.179 18.33,-19.644 12.286,-6.649 29.888,-8.019 48.249,-3.755 5.225,1.213 10.513,2.439 11.75,2.723 2.167,0.499 2.25,0.262 2.25,-6.416 v -6.933 l -7.448,-1.756 c -13.047,-3.076 -27.548,-4.054 -38.771,-2.614 m 126.219,0.023 c -20.236,3.196 -33.803,15.944 -37.142,34.898 -1.36,7.722 0.013,16.118 4.005,24.485 4.86,10.184 4.852,10.179 11.222,8.11 2.978,-0.967 5.781,-2.091 6.229,-2.499 0.448,-0.408 -0.576,-2.933 -2.274,-5.612 -3.952,-6.231 -5.291,-11.233 -5.258,-19.638 0.074,-18.574 16.975,-30.219 38.832,-26.753 17.282,2.74 28.749,13.018 34.019,30.49 2.86,9.481 2.591,28.79 -0.533,38.328 -7.081,21.614 -23.001,32.724 -46.6,32.518 -24.385,-0.212 -41.012,-12.724 -47.068,-35.417 -2.408,-9.024 -2.211,-26.061 0.415,-35.797 l 1.986,-7.368 -5.166,0.674 c -9.01,1.175 -9.385,1.385 -10.52,5.896 -7.772,30.902 1.295,59.784 23.413,74.577 25.27,16.903 61.621,13.839 82.406,-6.945 11.952,-11.953 18.034,-28.13 18.034,-47.966 0,-30.615 -15.58,-53.967 -40.3,-60.406 -7.296,-1.9 -19.071,-2.622 -25.7,-1.575 m 86.21,26.69 c 5.555,13.635 16.747,41.216 24.87,61.291 l 14.77,36.5 8.957,0.286 8.957,0.286 5.703,-14.286 c 3.137,-7.857 14.215,-35.303 24.618,-60.99 10.403,-25.687 18.915,-46.949 18.915,-47.25 0,-0.3 -3.284,-0.546 -7.298,-0.546 h -7.299 l -21.384,53.5 c -11.762,29.425 -21.659,53.5 -21.994,53.5 -0.335,0 -10.292,-23.962 -22.127,-53.25 l -21.518,-53.25 -7.635,-0.291 -7.636,-0.291 10.101,24.791 m 127.79,36.791 v 61.5 h 41 41 v -5.848 -5.848 l -10.656,-0.652 c -5.86,-0.359 -20.935,-0.652 -33.5,-0.652 H 820.155 V 289.106 268.12 l 31.25,-0.264 31.25,-0.264 0.295,-5.592 0.295,-5.591 -15.795,-0.655 c -8.687,-0.361 -22.882,-0.657 -31.545,-0.659 l -15.75,-0.003 v -20.84 -20.841 l 22.662,-0.659 c 12.463,-0.363 27.538,-0.66 33.5,-0.66 h 10.838 v -6 -6 h -41 -41 v 61.5"
     stroke="none"
     fill="#000000"
     fill-rule="evenodd"
     id="path1" />
</svg>
