<svg xmlns="http://www.w3.org/2000/svg" width="1584" height="1584" viewBox="0 0 1584 1584" version="1.1">
	<path d="M 141.306 664.411 C 138.537 666.790, 138.496 666.994, 138.173 679.809 L 137.845 692.795 140.839 696.148 L 143.833 699.500 169.416 699.812 L 195 700.125 195 752.874 C 195 804.577, 195.040 805.666, 197.039 807.811 C 199.011 809.928, 199.761 809.999, 219.789 809.985 C 231.180 809.976, 240.995 809.639, 241.600 809.235 C 244.818 807.086, 245 804.033, 245 752.066 L 245 700 268.032 700 C 292.502 700, 296.675 699.345, 298.920 695.150 C 299.534 694.003, 300 687.551, 300 680.202 C 300 667.566, 299.940 667.213, 297.364 664.636 L 294.727 662 219.419 662 L 144.112 662 141.306 664.411 M 330.357 662.961 C 324.806 665.281, 325 662.592, 325 737.086 L 325 805.727 327.636 808.364 L 330.273 811 350.182 811 C 369.987 811, 370.104 810.987, 372.545 808.545 L 375 806.091 375 780.045 L 375 754 404 754 L 433 754 433 779.854 L 433 805.708 435.452 808.354 L 437.905 811 457.998 811 C 477.720 811, 478.134 810.957, 480.427 808.664 C 482.737 806.354, 482.771 805.996, 483.525 775.414 C 483.944 758.411, 484.001 727.208, 483.652 706.073 C 483.029 668.383, 482.975 667.602, 480.834 665.323 C 478.689 663.040, 478.304 663, 458.280 663 C 437.985 663, 437.900 663.009, 435.455 665.455 L 433 667.909 433 694.955 L 433 722 404.546 722 L 376.092 722 375.796 695.021 L 375.500 668.042 372.730 665.271 L 369.959 662.500 351.230 662.282 C 340.928 662.163, 331.536 662.468, 330.357 662.961 M 519.636 664.636 L 517 667.273 517 736.184 L 517 805.095 519.646 807.548 L 522.292 810 595.569 810 L 668.847 810 671.923 807.411 L 675 804.822 675 791.334 L 675 777.846 672.077 774.923 L 669.154 772 617.077 772 L 565 772 565 762 L 565 752 611.944 752 L 658.888 752 661.682 749.597 C 664.239 747.398, 664.508 746.503, 664.846 739.063 C 665.075 734.009, 664.742 729.792, 663.967 727.919 C 661.512 721.994, 661.564 722, 611.050 722 L 565 722 565 711 L 565 700 614.750 699.994 C 645.900 699.991, 665.891 699.603, 668.221 698.956 C 674.307 697.265, 675 695.364, 675 680.366 L 675 667.178 671.923 664.589 L 668.847 662 595.560 662 L 522.273 662 519.636 664.636 M 704.455 664.455 L 702 666.909 702 736 L 702 805.091 704.455 807.545 C 706.898 809.989, 707.002 810, 727 810 C 746.998 810, 747.102 809.989, 749.545 807.545 C 751.934 805.157, 752 804.686, 752 790.045 L 752 775 771.750 775.002 L 791.500 775.004 794.651 779.752 C 796.384 782.363, 800.710 789.038, 804.264 794.584 C 814.094 809.925, 812.943 809.440, 840.334 809.803 C 864.042 810.117, 866 809.824, 866 805.964 C 866 804.979, 859.179 795.499, 850.842 784.898 L 835.684 765.622 838.092 764.075 C 847.308 758.153, 856.045 746.460, 859.592 735.297 C 861.719 728.603, 862.540 710.877, 861.053 703.737 C 858.296 690.499, 848.006 675.990, 836.435 669.026 C 825.153 662.235, 823.945 662.122, 762.205 662.058 L 706.909 662 704.455 664.455 M 934.299 663.960 C 932.538 665.033, 930.454 667.169, 929.667 668.706 C 928.880 670.243, 918.661 698.950, 906.956 732.500 C 883.656 799.290, 882.731 802.822, 887.339 807.430 L 889.909 810 908.780 810 C 931.061 810, 930.115 810.470, 934.460 797.238 L 937.172 788.977 975.744 789.238 L 1014.315 789.500 1016.517 796.027 C 1019.375 804.500, 1021.537 808.608, 1023.545 809.379 C 1024.435 809.720, 1033.367 810, 1043.393 810 C 1060.324 810, 1061.778 809.855, 1063.799 807.972 C 1066.463 805.491, 1067.423 801.996, 1066.688 797.462 C 1066.381 795.575, 1058.706 772.537, 1049.630 746.266 C 1021.747 665.551, 1022.972 668.835, 1019.420 665.250 L 1016.200 662 976.850 662.004 C 939.586 662.007, 937.330 662.111, 934.299 663.960 M 1093.696 664.406 L 1091 666.905 1091 735.816 L 1091 804.727 1093.636 807.364 L 1096.273 810 1116.182 810 C 1142.736 810, 1141 811.606, 1141 787.045 L 1141 769 1172.290 769 C 1206.747 769, 1210.074 768.585, 1222 762.808 C 1230.100 758.883, 1240.342 748.815, 1244.693 740.500 C 1255.583 719.683, 1252.144 694.213, 1236.299 678.349 C 1230.335 672.378, 1224.543 668.749, 1215.120 665.080 L 1208.500 662.502 1152.446 662.205 L 1096.391 661.908 1093.696 664.406 M 1260.416 664.493 C 1258.439 666.470, 1258.132 667.378, 1258.934 668.876 C 1259.490 669.915, 1276.157 686.871, 1295.972 706.556 L 1332 742.346 1332 773.718 L 1332 805.091 1334.455 807.545 C 1336.898 809.989, 1337.002 810, 1357 810 C 1376.998 810, 1377.102 809.989, 1379.545 807.545 L 1382 805.091 1382.054 773.295 L 1382.109 741.500 1417.054 705.564 C 1442.048 679.862, 1452 668.985, 1452 667.371 C 1452 662.545, 1449.334 662, 1425.728 662 C 1408.840 662, 1403.280 662.321, 1401.158 663.418 C 1399.649 664.198, 1389.209 673.419, 1377.958 683.909 C 1366.706 694.399, 1357.254 702.986, 1356.954 702.991 C 1356.654 702.996, 1347.738 694.788, 1337.140 684.750 C 1326.542 674.712, 1316.029 665.487, 1313.778 664.250 C 1309.863 662.097, 1308.672 662, 1286.297 662 L 1262.909 662 1260.416 664.493 M 752 721.500 L 752 743 763.250 742.974 C 791.492 742.909, 802.582 739.969, 807.751 731.176 C 810.060 727.249, 810.500 725.351, 810.500 719.327 C 810.500 711.365, 809.009 708.333, 803.121 704.325 C 798.106 700.911, 791.333 700, 770.951 700 L 752 700 752 721.500 M 1141.348 710.656 C 1141.707 716.516, 1142 725.516, 1142 730.656 L 1142 740 1159.282 740 C 1177.973 740, 1184.545 738.940, 1190.299 734.997 C 1195.824 731.211, 1198.371 726.599, 1198.783 719.631 C 1199.104 714.207, 1198.805 712.969, 1196.186 708.894 C 1194.225 705.842, 1191.733 703.565, 1188.798 702.144 C 1184.684 700.153, 1182.814 700, 1162.532 700 L 1140.696 700 1141.348 710.656 M 956.647 731.537 C 951.782 746.166, 948.004 758.337, 948.251 758.584 C 948.497 758.830, 961.092 758.912, 976.239 758.766 L 1003.779 758.500 995.577 732 L 987.375 705.500 976.433 705.220 L 965.492 704.939 956.647 731.537 M 602.781 859.996 C 590.115 861.620, 577.501 867.353, 567.745 875.919 C 562.432 880.583, 555.173 891.968, 552.186 900.319 C 549.862 906.818, 549.612 908.973, 549.559 923 C 549.507 936.783, 549.768 939.317, 551.916 945.876 C 554.965 955.184, 562.102 966.184, 569.016 972.233 C 575.404 977.821, 586.064 983.349, 595 985.708 C 606.214 988.669, 631.387 987.782, 646.250 983.902 L 650 982.923 650 976.099 L 650 969.275 642.302 971.109 C 613.002 978.090, 590.540 974.635, 576.966 961.061 C 562.643 946.738, 558.890 919.210, 568.421 898.391 C 571.475 891.720, 580.347 882.212, 586.751 878.747 C 599.037 872.098, 616.639 870.728, 635 874.992 C 640.225 876.205, 645.513 877.431, 646.750 877.715 C 648.917 878.214, 649 877.977, 649 871.299 L 649 864.366 641.552 862.610 C 628.505 859.534, 614.004 858.556, 602.781 859.996 M 729 860.019 C 708.764 863.215, 695.197 875.963, 691.858 894.917 C 690.498 902.639, 691.871 911.035, 695.863 919.402 C 700.723 929.586, 700.715 929.581, 707.085 927.512 C 710.063 926.545, 712.866 925.421, 713.314 925.013 C 713.762 924.605, 712.738 922.080, 711.040 919.401 C 707.088 913.170, 705.749 908.168, 705.782 899.763 C 705.856 881.189, 722.757 869.544, 744.614 873.010 C 761.896 875.750, 773.363 886.028, 778.633 903.500 C 781.493 912.981, 781.224 932.290, 778.100 941.828 C 771.019 963.442, 755.099 974.552, 731.500 974.346 C 707.115 974.134, 690.488 961.622, 684.432 938.929 C 682.024 929.905, 682.221 912.868, 684.847 903.132 L 686.833 895.764 681.667 896.438 C 672.657 897.613, 672.282 897.823, 671.147 902.334 C 663.375 933.236, 672.442 962.118, 694.560 976.911 C 719.830 993.814, 756.181 990.750, 776.966 969.966 C 788.918 958.013, 795 941.836, 795 922 C 795 891.385, 779.420 868.033, 754.700 861.594 C 747.404 859.694, 735.629 858.972, 729 860.019 M 815.210 886.709 C 820.765 900.344, 831.957 927.925, 840.080 948 L 854.850 984.500 863.807 984.786 L 872.764 985.072 878.467 970.786 C 881.604 962.929, 892.682 935.483, 903.085 909.796 C 913.488 884.109, 922 862.847, 922 862.546 C 922 862.246, 918.716 862, 914.702 862 L 907.403 862 886.019 915.500 C 874.257 944.925, 864.360 969, 864.025 969 C 863.690 969, 853.733 945.038, 841.898 915.750 L 820.380 862.500 812.745 862.209 L 805.109 861.918 815.210 886.709 M 943 923.500 L 943 985 984 985 L 1025 985 1025 979.152 L 1025 973.304 1014.344 972.652 C 1008.484 972.293, 993.409 972, 980.844 972 L 958 972 958 951.014 L 958 930.028 989.250 929.764 L 1020.500 929.500 1020.795 923.908 L 1021.090 918.317 1005.295 917.662 C 996.608 917.301, 982.413 917.005, 973.750 917.003 L 958 917 958 896.160 L 958 875.319 980.662 874.660 C 993.125 874.297, 1008.200 874, 1014.162 874 L 1025 874 1025 868 L 1025 862 984 862 L 943 862 943 923.500 M 917.450 1152.407 C 909.097 1156.045, 906.163 1166.317, 911.852 1172.006 C 914.499 1174.653, 917.591 1175.856, 929.865 1179.015 C 940.946 1181.868, 942.189 1192.256, 931.784 1195.058 C 927.107 1196.318, 920.413 1195.591, 917.657 1193.525 C 916.643 1192.765, 915.225 1190.423, 914.507 1188.322 C 913.415 1185.129, 912.689 1184.448, 910.100 1184.187 C 906.236 1183.796, 906.034 1185.661, 909.250 1192.038 C 912.255 1197.997, 918.053 1201.009, 926.462 1200.978 C 938.153 1200.936, 945 1195.620, 945 1186.588 C 945 1177.882, 942.187 1175.544, 927.522 1172.061 C 917.667 1169.721, 915 1168.011, 915 1164.034 C 915 1157.997, 922.854 1154.473, 930.453 1157.101 C 933.668 1158.212, 934.906 1159.374, 936.474 1162.750 C 938.102 1166.255, 938.935 1167, 941.224 1167 C 944.629 1167, 944.948 1164.236, 942.145 1159.009 C 938.452 1152.124, 925.841 1148.752, 917.450 1152.407 M 646.888 1154.750 C 646.303 1156.263, 642.528 1166.275, 638.497 1177 C 634.467 1187.725, 630.858 1197.287, 630.478 1198.250 C 629.899 1199.713, 630.354 1200, 633.255 1200 C 636.627 1200, 636.793 1199.811, 639.194 1193.250 L 641.664 1186.500 651.164 1186.216 L 660.664 1185.932 663.059 1192.966 C 665.438 1199.955, 665.477 1200, 669.102 1200 L 672.751 1200 665.755 1180.750 C 661.907 1170.162, 658.052 1159.362, 657.188 1156.750 C 655.679 1152.182, 655.471 1152, 651.784 1152 C 648.526 1152, 647.791 1152.413, 646.888 1154.750 M 681 1155 L 681 1158 689 1158 L 697 1158 697 1179 L 697 1200 700.500 1200 L 704 1200 704 1179 L 704 1158 712 1158 L 720 1158 720 1155 L 720 1152 700.500 1152 L 681 1152 681 1155 M 736 1176 L 736 1200 739.500 1200 L 743 1200 743 1189 L 743 1178 755.500 1178 L 768 1178 768 1189 L 768 1200 771 1200 L 774 1200 774 1176 L 774 1152 771 1152 L 768 1152 768 1162 L 768 1172 755.500 1172 L 743 1172 743 1162 L 743 1152 739.500 1152 L 736 1152 736 1176 M 796 1176 L 796 1200 813.500 1200 L 831 1200 831 1197 L 831 1194 816.500 1194 L 802 1194 802 1186 L 802 1178 815.500 1178 L 829 1178 829 1175 L 829 1172 815.500 1172 L 802 1172 802 1165 L 802 1158 816.500 1158 L 831 1158 831 1155 L 831 1152 813.500 1152 L 796 1152 796 1176 M 850 1176 L 850 1200 852.978 1200 L 855.957 1200 856.228 1180.890 L 856.500 1161.780 868.500 1180.849 L 880.500 1199.918 884.250 1199.959 L 888 1200 888 1176 L 888 1152 885.022 1152 L 882.043 1152 881.772 1171.016 L 881.500 1190.032 869.639 1171.016 L 857.779 1152 853.889 1152 L 850 1152 850 1176 M 650.552 1162.107 C 650.279 1162.873, 648.694 1167.243, 647.028 1171.818 C 645.363 1176.393, 644 1180.331, 644 1180.568 C 644 1180.806, 647.150 1181, 651 1181 C 654.850 1181, 658 1180.634, 658 1180.188 C 658 1179.042, 652.126 1161.792, 651.534 1161.201 C 651.266 1160.933, 650.824 1161.341, 650.552 1162.107" stroke="none" fill="black" fill-rule="evenodd"/>
</svg>