<?xml version="1.0" encoding="UTF-8"?>
<!-- Generator: visioncortex VTracer 0.6.4 -->
<svg version="1.1" xmlns="http://www.w3.org/2000/svg" width="1584" height="1584">
<path d="M0 0 C522.72 0 1045.44 0 1584 0 C1584 522.72 1584 1045.44 1584 1584 C1061.28 1584 538.56 1584 0 1584 C0 1061.28 0 538.56 0 0 Z " fill="#F8EBCE" transform="translate(0,0)"/>
<path d="M0 0 C1.44 -0.01 2.88 -0.01 4.32 -0.02 C8.23 -0.04 12.14 -0.03 16.04 -0.01 C20.13 0.01 24.23 -0 28.32 -0.01 C35.19 -0.01 42.06 0.01 48.93 0.03 C56.86 0.07 64.8 0.07 72.74 0.05 C80.38 0.03 88.03 0.04 95.67 0.06 C98.92 0.06 102.17 0.06 105.42 0.06 C109.25 0.05 113.07 0.06 116.9 0.09 C118.31 0.09 119.71 0.09 121.11 0.09 C123.03 0.08 124.95 0.1 126.87 0.12 C127.94 0.12 129.02 0.12 130.12 0.12 C133.73 0.75 135.4 2.12 138.02 4.63 C140.12 8.83 139.34 14.27 139.39 18.88 C139.45 20.58 139.45 20.58 139.51 22.31 C139.52 23.41 139.53 24.51 139.54 25.65 C139.56 26.65 139.58 27.65 139.6 28.69 C138.82 32.63 137.22 35.25 134.02 37.63 C130.61 38.49 127.31 38.39 123.81 38.31 C122.27 38.31 122.27 38.31 120.71 38.31 C117.32 38.31 113.94 38.26 110.56 38.22 C108.21 38.21 105.87 38.2 103.52 38.19 C97.35 38.17 91.17 38.11 85 38.04 C78.7 37.98 72.4 37.95 66.1 37.92 C53.74 37.86 41.38 37.75 29.02 37.63 C29.02 45.55 29.02 53.47 29.02 61.63 C33.3 61.6 33.3 61.6 37.67 61.57 C47.11 61.5 56.54 61.46 65.97 61.42 C71.69 61.4 77.41 61.37 83.13 61.33 C88.65 61.29 94.16 61.26 99.68 61.25 C101.79 61.24 103.89 61.23 106 61.21 C108.95 61.18 111.9 61.18 114.84 61.18 C115.72 61.16 116.59 61.15 117.49 61.13 C123.4 61.17 123.4 61.17 126.56 63.52 C129.16 67.28 128.63 71.14 128.58 75.57 C128.6 76.46 128.63 77.36 128.65 78.28 C128.65 79.15 128.65 80.01 128.65 80.91 C128.65 82.09 128.65 82.09 128.65 83.29 C127.67 86.92 125.96 88.32 123.02 90.63 C119.95 91.34 116.96 91.26 113.82 91.2 C112.9 91.2 111.99 91.2 111.04 91.2 C108.02 91.2 104.99 91.16 101.97 91.12 C99.87 91.11 97.77 91.1 95.67 91.1 C90.14 91.08 84.62 91.03 79.1 90.97 C73.46 90.92 67.82 90.9 62.19 90.88 C51.13 90.82 40.07 90.73 29.02 90.63 C29.02 97.23 29.02 103.83 29.02 110.63 C33.65 110.6 33.65 110.6 38.38 110.57 C48.58 110.5 58.79 110.46 69 110.42 C75.18 110.4 81.37 110.37 87.56 110.33 C93.53 110.29 99.5 110.26 105.47 110.25 C107.75 110.24 110.03 110.23 112.31 110.21 C115.5 110.18 118.69 110.18 121.88 110.18 C122.82 110.16 123.76 110.15 124.73 110.13 C130.46 110.17 133.64 110.85 138.02 114.63 C140.18 118.95 139.29 124.7 139.33 129.44 C139.36 130.63 139.39 131.82 139.42 133.05 C139.43 134.2 139.43 135.34 139.44 136.53 C139.47 138.1 139.47 138.1 139.49 139.71 C138.9 143.35 137.55 145 135.02 147.63 C132.39 148.94 130.29 148.84 127.35 148.95 C125.67 149.01 125.67 149.01 123.96 149.07 C122.78 149.11 121.6 149.15 120.39 149.19 C118.62 149.26 118.62 149.26 116.81 149.32 C113.88 149.43 110.95 149.53 108.02 149.63 C109.03 152.67 110.1 153.88 112.37 156.04 C113.65 157.28 114.9 158.56 116.14 159.85 C120.26 164.13 123.64 167.05 129.02 169.63 C130.32 170.72 131.58 171.85 132.83 173.01 C137.73 177.51 142.97 181.47 148.28 185.47 C154.27 190.01 160.1 194.73 165.84 199.58 C166.46 200.1 167.08 200.61 167.72 201.15 C168.27 201.6 168.81 202.06 169.36 202.53 C171.25 203.79 172.78 204.28 175.02 204.63 C176.97 203.96 176.97 203.96 178.83 202.82 C186.25 198.58 193.09 198.32 201.46 198.38 C202.45 198.37 203.45 198.37 204.48 198.36 C218.21 198.39 229.7 202.54 240.02 211.63 C240.65 212.18 241.28 212.72 241.92 213.29 C256.29 226.65 258.82 245.2 259.52 263.82 C259.54 264.75 259.56 265.69 259.59 266.65 C259.62 267.52 259.64 268.4 259.67 269.3 C259.69 270.09 259.71 270.87 259.73 271.68 C260.13 274.39 261.66 275.31 263.64 277.07 C272.33 282.78 280.14 281.63 290.02 280.63 C290.02 281.29 290.02 281.95 290.02 282.63 C293.98 282.63 297.94 282.63 302.02 282.63 C300.44 278.65 298.85 274.67 297.27 270.69 C297.02 270.06 296.76 269.43 296.5 268.78 C292.65 259.11 288.73 249.46 284.77 239.83 C283.85 237.6 282.94 235.37 282.02 233.14 C280.64 229.79 279.27 226.44 277.88 223.09 C276.57 219.93 275.27 216.76 273.97 213.59 C273.57 212.63 273.17 211.67 272.76 210.68 C272.4 209.79 272.04 208.91 271.66 207.99 C271.34 207.22 271.02 206.45 270.7 205.65 C270.02 203.63 270.02 203.63 270.02 200.63 C274.64 200.63 279.26 200.63 284.02 200.63 C288.29 209.71 292.21 218.84 295.9 228.17 C296.45 229.54 297 230.92 297.55 232.29 C298.98 235.89 300.41 239.48 301.84 243.08 C304.1 248.77 306.37 254.45 308.63 260.13 C309.46 262.22 310.29 264.31 311.13 266.4 C313.81 273.16 316.53 279.91 319.3 286.63 C319.56 287.26 319.82 287.89 320.09 288.55 C321.31 291.52 322.54 294.5 323.78 297.47 C324.21 298.5 324.64 299.54 325.08 300.61 C325.46 301.51 325.83 302.41 326.22 303.34 C327.02 305.63 327.02 305.63 327.02 308.63 C327.68 308.63 328.34 308.63 329.02 308.63 C329.2 307.56 329.2 307.56 329.38 306.48 C330.04 303.52 331 300.93 332.15 298.13 C332.59 297.05 333.03 295.97 333.49 294.86 C333.96 293.7 334.44 292.55 334.93 291.36 C335.67 289.53 336.42 287.7 337.16 285.87 C338.99 281.37 340.82 276.87 342.67 272.38 C343.71 269.86 344.74 267.33 345.77 264.8 C346.73 262.43 347.7 260.05 348.69 257.68 C351.88 249.77 353.49 244.4 350.14 236.26 C348.83 232.9 347.74 229.74 347.08 226.19 C346.12 221.3 344.11 216.95 342.04 212.43 C341 209.57 340.91 207.63 341.02 204.63 C340.69 203.64 340.36 202.65 340.02 201.63 C340.68 201.63 341.34 201.63 342.02 201.63 C341.11 191.13 339.37 182.32 335.02 172.63 C334.36 173.62 333.7 174.61 333.02 175.63 C331.86 171.44 331.78 167.33 331.71 163 C331.69 162.15 331.68 161.29 331.66 160.41 C331.62 157.63 331.6 154.85 331.58 152.07 C331.57 150.66 331.57 150.66 331.56 149.21 C331.44 112.49 331.44 112.49 340.02 99.63 C340.35 99.96 340.68 100.29 341.02 100.63 C341.36 99.96 341.7 99.3 342.05 98.61 C348.78 85.81 356.95 75.71 368.03 66.5 C374.79 60.15 376.98 53.92 379.83 45.13 C380.26 43.84 380.7 42.54 381.13 41.25 C382.01 38.63 382.88 36.02 383.76 33.4 C385.58 27.96 387.46 22.54 389.39 17.13 C389.7 16.24 390.01 15.34 390.33 14.42 C392.17 9.28 393.95 4.69 398.67 1.52 C401.94 0.28 405.09 0.34 408.54 0.34 C409.29 0.33 410.04 0.33 410.81 0.32 C413.3 0.3 415.78 0.3 418.26 0.3 C419.99 0.29 421.72 0.28 423.45 0.27 C427.07 0.26 430.69 0.26 434.31 0.26 C438.95 0.26 443.59 0.23 448.22 0.2 C451.79 0.18 455.36 0.17 458.93 0.17 C460.64 0.17 462.35 0.16 464.06 0.15 C466.45 0.13 468.85 0.13 471.24 0.15 C472.29 0.13 472.29 0.13 473.37 0.11 C478.36 0.17 481.19 1.48 485.02 4.63 C489.63 12.02 491.94 20.72 494.71 28.94 C495.24 30.5 495.77 32.07 496.3 33.63 C498.78 40.94 501.23 48.26 503.66 55.58 C504.06 56.79 504.46 58 504.88 59.24 C505.61 61.47 506.35 63.7 507.07 65.93 C508.91 71.49 510.9 76.94 513.11 82.36 C514.41 85.61 515.5 88.92 516.58 92.26 C518.35 97.7 520.18 103.12 522.1 108.51 C523.11 111.37 524.12 114.24 525.13 117.1 C525.63 118.53 526.14 119.95 526.66 121.38 C527.39 123.41 528.11 125.45 528.82 127.48 C529.24 128.67 529.67 129.85 530.1 131.07 C531.51 136.54 531.88 140.92 529.27 146.11 C526.59 148.89 524.26 149.03 520.48 149.15 C518.31 149.12 516.13 149.07 513.96 149.01 C503.11 149.05 497.08 150 489.02 157.63 C488.2 158.29 487.37 158.95 486.53 159.62 C479.5 165.36 473.12 172.92 471.61 182.13 C471.5 183.41 471.5 183.41 471.38 184.71 C471.3 185.64 471.22 186.58 471.13 187.54 C471.05 188.5 470.97 189.45 470.89 190.44 C470.76 191.91 470.76 191.91 470.63 193.41 C470.42 195.82 470.22 198.22 470.02 200.63 C476.29 200.63 482.56 200.63 489.02 200.63 C489.02 204.59 489.02 208.55 489.02 212.63 C466.58 212.63 444.14 212.63 421.02 212.63 C421.02 227.15 421.02 241.67 421.02 256.63 C441.81 256.63 462.6 256.63 484.02 256.63 C484.02 260.59 484.02 264.55 484.02 268.63 C482.7 268.63 481.38 268.63 480.02 268.63 C480.44 269.93 480.88 271.22 481.33 272.51 C481.57 273.23 481.82 273.94 482.07 274.69 C482.98 276.97 482.98 276.97 486.02 278.63 C486.98 281.23 486.98 281.23 487.81 284.49 C488.11 285.67 488.41 286.85 488.72 288.06 C489.02 289.3 489.33 290.54 489.64 291.82 C489.95 293.04 490.27 294.26 490.59 295.52 C494.02 309.15 494.43 317.42 487.12 329.86 C482.49 337.47 476.82 343.01 470.02 348.63 C469.47 349.12 468.92 349.6 468.35 350.1 C463.22 354.35 457.52 356.78 451.39 359.27 C447.5 360.61 447.5 360.61 445.02 363.63 C443.33 363.97 443.33 363.97 441.02 364.13 C436.92 364.45 432.87 364.89 428.79 365.41 C419.46 366.6 410.65 367.38 401.33 365.63 C393.9 364.24 386.54 364.46 379.02 364.63 C379.02 364.96 379.02 365.29 379.02 365.63 C378.26 365.55 377.49 365.46 376.71 365.38 C370.25 364.74 364.44 364.67 358.02 365.63 C358.02 364.64 358.02 363.65 358.02 362.63 C356.81 362.66 356.81 362.66 355.59 362.69 C339.79 362.41 327.35 354.65 314.35 346.35 C309.35 343.24 304.99 341.5 299.16 340.43 C292.74 338.79 286.87 335.49 280.96 332.56 C279.22 331.73 277.44 330.98 275.65 330.25 C270.78 328.08 266.25 325.43 261.64 322.76 C258.96 321.21 256.28 319.66 253.6 318.12 C251.89 317.14 250.2 316.13 248.52 315.1 C247.36 314.4 247.36 314.4 246.17 313.69 C245.48 313.27 244.8 312.85 244.1 312.41 C241.37 311.39 239.78 311.8 237.02 312.63 C234.78 314.08 234.78 314.08 232.58 315.88 C219.46 325.39 201.9 328.4 186.05 326.1 C168.98 323.31 155.02 316.39 144.02 302.63 C138.49 294.01 134.82 284.71 133.02 274.63 C132.68 272.81 132.68 272.81 132.33 270.94 C131.82 265.59 131.77 260.46 132.49 255.12 C133.66 248.64 133.66 248.64 131.67 242.76 C129.84 241.51 128.01 240.59 126.02 239.63 C125.32 238.89 124.62 238.15 123.89 237.38 C121.62 235.26 120.03 235.17 117.02 234.63 C116.01 233.64 115.01 232.63 114.02 231.63 C112.79 230.95 111.53 230.31 110.27 229.69 C104.06 226.37 98.8 221.82 93.37 217.37 C92.48 216.65 92.48 216.65 91.58 215.92 C90.37 214.93 89.22 213.87 88.1 212.79 C84.76 210.93 81.3 211.15 77.58 211.19 C76.78 211.2 75.98 211.21 75.15 211.21 C62.97 211.54 50.73 215.84 41.49 223.99 C36.22 229.85 32.13 237.04 30.02 244.63 C29.81 245.33 29.61 246.03 29.4 246.75 C28.05 252.23 27.81 257.63 27.77 263.26 C27.76 263.96 27.75 264.66 27.74 265.39 C27.81 277.58 32.57 290.76 41.02 299.63 C53.81 311.07 68.86 313.59 85.53 312.82 C91.75 312.35 97.86 311.18 103.98 309.99 C107.31 309.4 110.66 309.02 114.02 308.63 C114.02 312.92 114.02 317.21 114.02 321.63 C103.37 324.62 93.81 325.87 82.75 325.93 C81.23 325.94 79.71 325.96 78.2 325.99 C59.7 326.35 43.79 321.43 30.02 308.63 C16.52 294.82 12.58 278.14 12.65 259.4 C12.95 242.92 18.35 227.72 29.86 215.62 C40.12 206.16 51.45 201.25 65.02 198.63 C65.02 197.97 65.02 197.31 65.02 196.63 C63.09 195.19 63.09 195.19 60.6 193.77 C59.67 193.21 58.75 192.65 57.8 192.08 C55.84 190.92 53.88 189.76 51.92 188.59 C44.52 184.13 44.52 184.13 41.45 181.06 C37.9 177.51 33.74 175.47 29.33 173.13 C27.91 172.37 27.91 172.37 26.47 171.58 C20.97 168.64 15.43 165.83 9.82 163.1 C8.64 162.52 7.45 161.94 6.23 161.34 C3.91 160.21 1.57 159.1 -0.76 158 C-1.82 157.48 -2.88 156.97 -3.97 156.44 C-4.91 156 -5.86 155.55 -6.83 155.09 C-8.98 153.63 -8.98 153.63 -9.65 151.51 C-9.76 150.89 -9.87 150.27 -9.98 149.63 C-11.65 148.96 -13.31 148.29 -14.98 147.63 C-18.44 144.06 -19.48 141.8 -19.5 136.86 C-19.51 135.71 -19.52 134.56 -19.54 133.37 C-19.53 132.12 -19.52 130.86 -19.52 129.57 C-19.52 128.22 -19.53 126.88 -19.54 125.54 C-19.56 121.9 -19.56 118.26 -19.55 114.62 C-19.55 111.59 -19.55 108.55 -19.56 105.51 C-19.58 98.34 -19.58 91.17 -19.56 84 C-19.54 76.6 -19.56 69.21 -19.59 61.81 C-19.62 55.46 -19.62 49.11 -19.62 42.76 C-19.61 38.96 -19.61 35.17 -19.63 31.38 C-19.65 27.81 -19.65 24.25 -19.62 20.68 C-19.61 18.75 -19.63 16.82 -19.65 14.89 C-19.6 10.13 -19.49 6.63 -17.32 2.35 C-11.79 -0.5 -6.1 -0.06 0 0 Z " fill="#B9D1B6" transform="translate(535.982421875,661.368896484375)"/>
<path d="M0 0 C6.24 -0.38 10.38 0.25 16 3 C16.66 3 17.32 3 18 3 C17.34 2.34 16.68 1.68 16 1 C22 1.26 25.42 1.82 30 6 C30.99 6 31.98 6 33 6 C37.33 6 41.67 6 46 6 C45.67 6.99 45.34 7.98 45 9 C44.01 9.33 43.02 9.66 42 10 C44.85 10.87 47.7 11.72 50.56 12.56 C51.36 12.81 52.16 13.06 52.99 13.31 C58.81 15 63.22 15.11 69.12 13.38 C71.61 12.88 73.57 13.39 76 14 C75.67 14.66 75.34 15.32 75 16 C83.41 17.49 83.41 17.49 92 19 C87.78 21.11 85.6 21.18 81 21 C85.76 22.5 89.22 23.14 94.19 22.44 C97.74 21.96 98.75 21.89 102.12 23.44 C102.74 23.95 103.36 24.47 104 25 C103.67 25.66 103.34 26.32 103 27 C103.69 26.81 104.37 26.62 105.08 26.42 C108.63 25.91 111.21 26.48 114.69 27.31 C115.83 27.58 116.96 27.84 118.14 28.11 C121 29 121 29 123 31 C122.34 31.33 121.68 31.66 121 32 C126.86 33.44 132.55 34.33 138.56 34.81 C155.59 36.41 172.37 40.27 188.51 45.87 C190.4 46.52 192.29 47.18 194.18 47.82 C196.07 48.47 197.96 49.13 199.84 49.8 C200.71 50.1 201.58 50.4 202.47 50.71 C203.25 50.98 204.02 51.25 204.82 51.53 C207 52.17 207 52.17 209.12 51.47 C209.74 51.31 210.36 51.16 211 51 C212.4 51.97 213.8 52.94 215.17 53.96 C217.4 55.23 219.35 55.58 221.88 56 C226.11 56.72 229.38 57.95 233.13 60 C235.24 61.18 235.24 61.18 238.62 62.44 C243.22 64.56 246.42 67.42 250 71 C252.55 72.19 255.09 73.31 257.69 74.38 C258.45 74.69 259.21 75.01 259.99 75.33 C264.87 77.3 269.63 78.75 274.75 79.94 C280.02 81.19 283.5 82.87 287.83 86.08 C295.78 91.41 303.67 90.99 312.94 90.75 C315.29 90.71 317.63 90.68 319.98 90.68 C321.43 90.67 322.87 90.65 324.32 90.6 C329.35 90.55 332.13 91.84 336 95 C337.3 97.61 337.14 99.53 337.15 102.45 C337.16 103.6 337.17 104.76 337.18 105.95 C337.19 107.86 337.19 107.86 337.19 109.82 C337.2 111.17 337.21 112.52 337.22 113.87 C337.24 118.32 337.26 122.76 337.27 127.21 C337.28 128.74 337.28 130.27 337.29 131.8 C337.31 138.16 337.33 144.52 337.34 150.88 C337.36 160.01 337.39 169.13 337.45 178.25 C337.49 184.66 337.51 191.07 337.51 197.48 C337.51 201.31 337.53 205.15 337.56 208.98 C337.59 212.58 337.6 216.18 337.58 219.79 C337.58 221.74 337.61 223.69 337.63 225.64 C337.57 234.17 337.57 234.17 334.72 238.28 C332.12 239.93 330.86 240.63 327.84 240.66 C326.66 240.69 326.66 240.69 325.46 240.72 C324.63 240.71 323.8 240.71 322.94 240.7 C321.63 240.71 321.63 240.71 320.3 240.72 C318.47 240.73 316.64 240.72 314.81 240.71 C312.01 240.69 309.21 240.73 306.41 240.77 C304.63 240.77 302.85 240.77 301.06 240.76 C300.23 240.78 299.4 240.79 298.54 240.81 C294.27 240.72 292.45 240.34 288.96 237.69 C285.79 233.06 286.38 227.64 286.51 222.26 C286.52 221.26 286.52 220.26 286.53 219.24 C286.55 215.53 286.62 211.83 286.69 208.12 C286.79 199.83 286.89 191.54 287 183 C267.86 183 248.72 183 229 183 C229.2 199.89 229.2 199.89 229.45 216.78 C229.47 218.9 229.48 221.02 229.49 223.14 C229.51 224.23 229.54 225.33 229.57 226.46 C229.57 231.19 229.55 234.11 227.04 238.2 C222.91 240.65 219.67 240.74 214.94 240.7 C213.63 240.71 213.63 240.71 212.3 240.72 C210.47 240.73 208.64 240.72 206.81 240.71 C204.01 240.69 201.21 240.73 198.41 240.77 C196.63 240.77 194.85 240.77 193.06 240.76 C192.23 240.78 191.4 240.79 190.54 240.81 C189.75 240.79 188.97 240.78 188.16 240.76 C187.13 240.76 187.13 240.76 186.09 240.76 C182.66 239.51 180.72 237.1 179 234 C178.51 231.01 178.31 228.59 178.34 225.61 C178.33 224.79 178.32 223.97 178.31 223.12 C178.28 220.43 178.29 217.73 178.29 215.04 C178.28 213.16 178.26 211.29 178.25 209.41 C178.21 204.49 178.2 199.57 178.19 194.65 C178.18 189.62 178.15 184.59 178.11 179.57 C178.05 169.71 178.01 159.86 178 150 C177.31 149.81 176.63 149.62 175.92 149.42 C175.02 149.16 174.12 148.9 173.2 148.63 C172.31 148.38 171.41 148.12 170.5 147.86 C167.28 146.75 164.81 144.89 162 143 C158.4 142.03 158.4 142.03 154.62 141.5 C150.43 140.79 146.67 140.12 143 137.88 C137.44 134.62 130.29 135.16 124 135 C124.33 134.34 124.66 133.68 125 133 C127.56 132.38 127.56 132.38 130 132 C127.13 131.04 125.1 130.82 122.11 130.72 C121.15 130.68 120.19 130.64 119.21 130.61 C118.21 130.57 117.21 130.54 116.19 130.5 C114.22 130.43 112.26 130.36 110.29 130.28 C109.42 130.25 108.55 130.22 107.65 130.19 C104.72 129.98 101.89 129.5 99 129 C99.01 130.3 99.02 131.61 99.03 132.95 C99.11 145.24 99.17 157.53 99.21 169.81 C99.23 176.13 99.26 182.45 99.3 188.76 C99.35 194.86 99.37 200.95 99.38 207.05 C99.39 209.37 99.4 211.7 99.42 214.03 C99.45 217.28 99.46 220.54 99.45 223.79 C99.47 224.76 99.48 225.72 99.5 226.71 C99.47 230.92 99.35 233.38 97.24 237.1 C94.79 239.17 93.89 239.62 90.74 239.62 C89.49 239.63 89.49 239.63 88.22 239.64 C86.89 239.62 86.89 239.62 85.53 239.59 C84.15 239.59 84.15 239.59 82.74 239.59 C80.8 239.59 78.86 239.57 76.92 239.54 C73.94 239.5 70.97 239.5 68 239.51 C66.11 239.5 64.23 239.48 62.34 239.47 C61.45 239.47 60.56 239.47 59.64 239.47 C58.81 239.45 57.99 239.44 57.13 239.42 C56.41 239.41 55.68 239.4 54.93 239.39 C52.45 238.89 51.58 237.93 50 236 C48.83 233.67 48.88 232.33 48.88 229.74 C48.88 228.84 48.88 227.95 48.88 227.02 C48.88 225.55 48.88 225.55 48.89 224.04 C48.89 223.01 48.89 221.97 48.89 220.91 C48.89 217.48 48.89 214.05 48.9 210.62 C48.9 208.24 48.91 205.87 48.91 203.5 C48.91 197.24 48.92 190.98 48.93 184.73 C48.94 178.34 48.95 171.96 48.95 165.58 C48.96 153.05 48.98 140.53 49 128 C48.36 128.01 47.71 128.02 47.05 128.03 C40.37 128.12 33.69 128.18 27 128.22 C24.51 128.24 22.01 128.27 19.52 128.3 C15.93 128.35 12.35 128.37 8.77 128.39 C7.65 128.41 6.53 128.43 5.38 128.45 C3.82 128.45 3.82 128.45 2.23 128.45 C1.31 128.46 0.4 128.47 -0.54 128.48 C-3.79 127.84 -4.98 126.56 -7 124 C-7.72 119.86 -7.62 115.73 -7.58 111.53 C-7.56 109.51 -7.6 107.49 -7.63 105.46 C-7.63 104.19 -7.63 102.91 -7.63 101.59 C-7.63 100.43 -7.63 99.26 -7.63 98.05 C-6.82 94.11 -5.17 93.32 -2 91 C-1.65 88.03 -1.57 85.63 -1.75 82.69 C-1.8 81.08 -1.85 79.47 -1.89 77.86 C-1.92 77.05 -1.94 76.25 -1.97 75.41 C-2.02 71.72 -1.78 68.06 -1.5 64.38 C-1.41 63.15 -1.31 61.92 -1.22 60.65 C-1.15 59.77 -1.07 58.9 -1 58 C-1.66 58 -2.32 58 -3 58 C-3 56.35 -3 54.7 -3 53 C-2.34 53 -1.68 53 -1 53 C-1.16 52.35 -1.31 51.69 -1.47 51.02 C-2.81 44.73 -2.99 39.32 -2.3 32.94 C-1.76 27.58 -1.28 22.15 -3 17 C-3.5 10.83 -1.95 5.77 0 0 Z " fill="#B8D1B5" transform="translate(146,571)"/>
<path d="M0 0 C1.03 -0.01 2.05 -0.02 3.11 -0.03 C6.51 -0.05 9.91 -0.03 13.3 -0.02 C15.68 -0.02 18.05 -0.03 20.42 -0.03 C25.41 -0.04 30.39 -0.03 35.37 -0 C41.72 0.02 48.06 0.01 54.41 -0.02 C59.32 -0.04 64.22 -0.03 69.13 -0.02 C71.47 -0.02 73.81 -0.02 76.14 -0.03 C97.09 -0.12 114.71 2.02 130.6 16.96 C141.4 28.39 145.32 41.38 145.03 56.82 C144.78 60.81 144.33 64.69 143.79 68.65 C154.72 72.02 165.65 75.39 176.66 78.46 C177.36 78.65 178.05 78.85 178.76 79.05 C183.74 80.42 188.74 81.57 193.79 82.65 C192.8 83.31 191.81 83.97 190.79 84.65 C195.81 86.64 200.16 86.92 205.48 87.02 C212.86 87.28 219.04 88.45 225.79 91.65 C226.22 86.93 226.43 82.1 223.69 78.01 C219.95 73.64 215.52 69.96 211.14 66.25 C204.68 60.72 198.67 54.75 192.63 48.76 C192.07 48.2 191.5 47.64 190.92 47.06 C187.93 44.1 184.95 41.14 181.97 38.18 C179.51 35.73 177.04 33.29 174.57 30.86 C171.56 27.9 168.57 24.94 165.59 21.96 C164.46 20.83 163.32 19.71 162.17 18.59 C160.58 17.03 159.01 15.46 157.43 13.88 C156.53 12.99 155.64 12.09 154.71 11.18 C152.79 8.65 152.79 8.65 152.25 6.01 C152.79 3.65 152.79 3.65 154.5 1.86 C157.04 0.51 158.56 0.26 161.41 0.23 C162.33 0.21 163.24 0.2 164.18 0.18 C165.65 0.18 165.65 0.18 167.14 0.18 C168.16 0.17 169.18 0.16 170.22 0.16 C172.37 0.14 174.53 0.14 176.68 0.15 C179.95 0.15 183.22 0.11 186.49 0.06 C188.58 0.06 190.67 0.05 192.77 0.05 C193.74 0.04 194.71 0.02 195.71 0 C203.64 0.08 208.93 2.53 215.06 7.48 C215.59 8.04 216.12 8.6 216.67 9.17 C217.58 10.11 217.58 10.11 218.51 11.06 C219.11 11.71 219.72 12.36 220.35 13.02 C221.66 14.37 222.97 15.72 224.28 17.06 C224.89 17.7 225.5 18.33 226.13 18.98 C228.55 21.42 231.12 23.62 233.75 25.82 C235.51 27.39 237.15 29.01 238.79 30.69 C239.6 31.51 239.6 31.51 240.41 32.35 C241.48 33.44 242.53 34.54 243.58 35.65 C245.51 37.64 247.38 39.41 249.79 40.81 C253.23 40.53 255.21 37.97 257.54 35.65 C258.7 34.53 259.86 33.42 261.01 32.31 C261.63 31.72 262.24 31.12 262.87 30.51 C266.18 27.3 269.55 24.17 272.91 21.02 C274.27 19.75 275.62 18.49 276.97 17.22 C278.24 16.03 279.52 14.84 280.79 13.65 C281.35 13.12 281.91 12.6 282.49 12.06 C283.98 10.66 285.48 9.28 286.98 7.9 C288.2 6.76 288.2 6.76 289.46 5.6 C295.27 0.73 299.32 0.2 306.73 0.25 C307.68 0.25 308.64 0.24 309.63 0.24 C311.65 0.24 313.67 0.24 315.69 0.26 C318.78 0.27 321.86 0.26 324.95 0.24 C326.92 0.24 328.88 0.24 330.85 0.25 C332.23 0.24 332.23 0.24 333.64 0.23 C342.3 0.32 342.3 0.32 345.79 3.65 C346.33 6.08 346.33 6.08 345.79 8.65 C344.25 10.74 344.25 10.74 342.1 12.79 C341.32 13.55 340.54 14.31 339.73 15.09 C338.9 15.87 338.08 16.66 337.23 17.46 C335.62 19.01 334.01 20.55 332.41 22.1 C331.62 22.87 330.82 23.64 330 24.43 C328.06 26.37 326.26 28.35 324.48 30.44 C318.93 36.93 312.69 42.8 306.61 48.8 C304.97 50.43 303.33 52.05 301.69 53.68 C301.17 54.2 300.64 54.72 300.1 55.26 C297.24 58.12 294.52 61.04 291.91 64.14 C289.92 66.49 288.04 68.31 285.48 70.03 C280.41 73.76 277.27 76.6 276.25 83.03 C275.73 91.59 276.13 100.1 276.79 108.65 C278.11 108.98 279.43 109.31 280.79 109.65 C280.13 140.34 279.47 171.03 278.79 202.65 C273.66 202.01 269.11 201.35 264.16 200.15 C260.05 199.15 255.97 198.31 251.79 197.65 C250.12 197.32 248.45 196.99 246.79 196.65 C246.01 196.5 245.24 196.35 244.44 196.2 C241.88 195.67 239.43 194.99 236.93 194.23 C235.99 193.95 235.05 193.67 234.08 193.38 C233.08 193.07 232.07 192.77 231.04 192.46 C222.32 189.87 213.58 187.58 204.73 185.52 C183.19 180.5 183.19 180.5 175.04 176.19 C171.62 174.57 168.41 173.62 164.74 172.71 C164.08 172.54 163.42 172.38 162.74 172.21 C160.66 171.68 158.57 171.16 156.48 170.65 C153.73 169.96 150.98 169.28 148.24 168.58 C147.24 168.34 147.24 168.34 146.23 168.08 C142.77 167.2 139.37 166.22 136 165.03 C131.02 163.29 125.91 162.39 120.73 161.46 C119.76 161.28 118.8 161.1 117.81 160.92 C115.47 160.49 113.13 160.07 110.79 159.65 C110.46 158.66 110.13 157.67 109.79 156.65 C103.01 155.38 96.22 154.44 89.37 153.64 C76.56 152.12 64.01 149.98 51.43 147.11 C47.27 146.16 43.16 145.3 38.91 144.83 C38.01 144.72 37.1 144.62 36.17 144.5 C33.72 144.41 33.72 144.41 32.09 146.07 C31.66 146.59 31.23 147.11 30.79 147.65 C25.74 150.17 17.87 149 12.25 149.05 C10.41 149.07 8.56 149.11 6.72 149.15 C4.06 149.22 1.4 149.25 -1.26 149.27 C-2.08 149.3 -2.9 149.32 -3.75 149.35 C-4.91 149.35 -4.91 149.35 -6.1 149.34 C-7.11 149.36 -7.11 149.36 -8.14 149.38 C-10.82 148.43 -12.48 147.01 -14.2 144.77 C-16.46 140.03 -15.9 134.61 -15.86 129.47 C-15.87 128.13 -15.87 126.78 -15.89 125.44 C-15.91 121.81 -15.9 118.17 -15.88 114.54 C-15.87 110.73 -15.88 106.92 -15.89 103.12 C-15.9 96.72 -15.89 90.33 -15.86 83.94 C-15.84 76.55 -15.85 69.16 -15.87 61.78 C-15.9 55.43 -15.9 49.08 -15.89 42.73 C-15.88 38.94 -15.88 35.15 -15.89 31.36 C-15.91 27.8 -15.9 24.24 -15.87 20.68 C-15.86 18.75 -15.87 16.82 -15.89 14.9 C-15.79 6.64 -15.79 6.64 -13.31 2.37 C-8.84 -0.12 -5.04 -0.05 0 0 Z " fill="#BBD2B7" transform="translate(1106.2119140625,661.35302734375)"/>
<path d="M0 0 C1.44 -0.01 2.88 -0.01 4.32 -0.02 C8.23 -0.04 12.14 -0.03 16.04 -0.01 C20.13 0.01 24.23 -0 28.32 -0.01 C35.19 -0.01 42.06 0.01 48.93 0.03 C56.86 0.07 64.8 0.07 72.74 0.05 C80.38 0.03 88.03 0.04 95.67 0.06 C98.92 0.06 102.17 0.06 105.42 0.06 C109.25 0.05 113.07 0.06 116.9 0.09 C118.31 0.09 119.71 0.09 121.11 0.09 C123.03 0.08 124.95 0.1 126.87 0.12 C127.94 0.12 129.02 0.12 130.12 0.12 C133.73 0.75 135.4 2.12 138.02 4.63 C140.12 8.83 139.34 14.27 139.39 18.88 C139.45 20.58 139.45 20.58 139.51 22.31 C139.52 23.41 139.53 24.51 139.54 25.65 C139.56 26.65 139.58 27.65 139.6 28.69 C138.82 32.63 137.22 35.25 134.02 37.63 C130.61 38.49 127.31 38.39 123.81 38.31 C122.27 38.31 122.27 38.31 120.71 38.31 C117.32 38.31 113.94 38.26 110.56 38.22 C108.21 38.21 105.87 38.2 103.52 38.19 C97.35 38.17 91.17 38.11 85 38.04 C78.7 37.98 72.4 37.95 66.1 37.92 C53.74 37.86 41.38 37.75 29.02 37.63 C29.02 45.55 29.02 53.47 29.02 61.63 C33.3 61.6 33.3 61.6 37.67 61.57 C47.11 61.5 56.54 61.46 65.97 61.42 C71.69 61.4 77.41 61.37 83.13 61.33 C88.65 61.29 94.16 61.26 99.68 61.25 C101.79 61.24 103.89 61.23 106 61.21 C108.95 61.18 111.9 61.18 114.84 61.18 C115.72 61.16 116.59 61.15 117.49 61.13 C123.4 61.17 123.4 61.17 126.56 63.52 C129.16 67.28 128.63 71.14 128.58 75.57 C128.6 76.46 128.63 77.36 128.65 78.28 C128.65 79.15 128.65 80.01 128.65 80.91 C128.65 82.09 128.65 82.09 128.65 83.29 C127.67 86.92 125.96 88.32 123.02 90.63 C119.95 91.34 116.96 91.26 113.82 91.2 C112.9 91.2 111.99 91.2 111.04 91.2 C108.02 91.2 104.99 91.16 101.97 91.12 C99.87 91.11 97.77 91.1 95.67 91.1 C90.14 91.08 84.62 91.03 79.1 90.97 C73.46 90.92 67.82 90.9 62.19 90.88 C51.13 90.82 40.07 90.73 29.02 90.63 C29.02 97.23 29.02 103.83 29.02 110.63 C33.65 110.6 33.65 110.6 38.38 110.57 C48.58 110.5 58.79 110.46 69 110.42 C75.18 110.4 81.37 110.37 87.56 110.33 C93.53 110.29 99.5 110.26 105.47 110.25 C107.75 110.24 110.03 110.23 112.31 110.21 C115.5 110.18 118.69 110.18 121.88 110.18 C122.82 110.16 123.76 110.15 124.73 110.13 C130.46 110.17 133.64 110.85 138.02 114.63 C140.18 118.95 139.29 124.7 139.33 129.44 C139.36 130.63 139.39 131.82 139.42 133.05 C139.43 134.2 139.43 135.34 139.44 136.53 C139.47 138.1 139.47 138.1 139.49 139.71 C138.9 143.35 137.55 145 135.02 147.63 C132.39 148.94 130.29 148.84 127.35 148.95 C125.67 149.01 125.67 149.01 123.96 149.07 C122.78 149.11 121.6 149.15 120.39 149.19 C118.62 149.26 118.62 149.26 116.81 149.32 C113.88 149.43 110.95 149.53 108.02 149.63 C109.03 152.67 110.1 153.88 112.37 156.04 C113.65 157.28 114.9 158.56 116.14 159.85 C120.26 164.13 123.64 167.05 129.02 169.63 C130.32 170.72 131.58 171.85 132.83 173.01 C137.73 177.51 142.97 181.47 148.28 185.47 C154.27 190.01 160.1 194.73 165.84 199.58 C166.46 200.1 167.08 200.61 167.72 201.15 C168.27 201.6 168.81 202.06 169.36 202.53 C171.25 203.79 172.78 204.28 175.02 204.63 C176.97 203.96 176.97 203.96 178.83 202.82 C186.25 198.58 193.09 198.32 201.46 198.38 C202.45 198.37 203.45 198.37 204.48 198.36 C218.21 198.39 229.7 202.54 240.02 211.63 C240.65 212.18 241.28 212.72 241.92 213.29 C254.06 224.57 258.44 240.5 259.21 256.59 C259.63 275.29 255.34 294.6 242.17 308.66 C228.66 321.03 211.66 327.24 193.33 326.89 C174.63 325.45 159.59 319.26 146.41 305.63 C139.27 296.69 135.02 285.83 133.02 274.63 C132.68 272.81 132.68 272.81 132.33 270.94 C131.82 265.59 131.77 260.46 132.49 255.12 C133.66 248.64 133.66 248.64 131.67 242.76 C129.84 241.51 128.01 240.59 126.02 239.63 C125.32 238.89 124.62 238.15 123.89 237.38 C121.62 235.26 120.03 235.17 117.02 234.63 C116.01 233.64 115.01 232.63 114.02 231.63 C112.79 230.95 111.53 230.31 110.27 229.69 C104.06 226.37 98.8 221.82 93.37 217.37 C92.48 216.65 92.48 216.65 91.58 215.92 C90.37 214.93 89.22 213.87 88.1 212.79 C84.76 210.93 81.3 211.15 77.58 211.19 C76.78 211.2 75.98 211.21 75.15 211.21 C62.97 211.54 50.73 215.84 41.49 223.99 C36.22 229.85 32.13 237.04 30.02 244.63 C29.81 245.33 29.61 246.03 29.4 246.75 C28.05 252.23 27.81 257.63 27.77 263.26 C27.76 263.96 27.75 264.66 27.74 265.39 C27.81 277.58 32.57 290.76 41.02 299.63 C53.81 311.07 68.86 313.59 85.53 312.82 C91.75 312.35 97.86 311.18 103.98 309.99 C107.31 309.4 110.66 309.02 114.02 308.63 C114.02 312.92 114.02 317.21 114.02 321.63 C103.37 324.62 93.81 325.87 82.75 325.93 C81.23 325.94 79.71 325.96 78.2 325.99 C59.7 326.35 43.79 321.43 30.02 308.63 C16.52 294.82 12.58 278.14 12.65 259.4 C12.95 242.92 18.35 227.72 29.86 215.62 C40.12 206.16 51.45 201.25 65.02 198.63 C65.02 197.97 65.02 197.31 65.02 196.63 C63.09 195.19 63.09 195.19 60.6 193.77 C59.67 193.21 58.75 192.65 57.8 192.08 C55.84 190.92 53.88 189.76 51.92 188.59 C44.52 184.13 44.52 184.13 41.45 181.06 C37.9 177.51 33.74 175.47 29.33 173.13 C27.91 172.37 27.91 172.37 26.47 171.58 C20.97 168.64 15.43 165.83 9.82 163.1 C8.64 162.52 7.45 161.94 6.23 161.34 C3.91 160.21 1.57 159.1 -0.76 158 C-1.82 157.48 -2.88 156.97 -3.97 156.44 C-4.91 156 -5.86 155.55 -6.83 155.09 C-8.98 153.63 -8.98 153.63 -9.65 151.51 C-9.76 150.89 -9.87 150.27 -9.98 149.63 C-11.65 148.96 -13.31 148.29 -14.98 147.63 C-18.44 144.06 -19.48 141.8 -19.5 136.86 C-19.51 135.71 -19.52 134.56 -19.54 133.37 C-19.53 132.12 -19.52 130.86 -19.52 129.57 C-19.52 128.22 -19.53 126.88 -19.54 125.54 C-19.56 121.9 -19.56 118.26 -19.55 114.62 C-19.55 111.59 -19.55 108.55 -19.56 105.51 C-19.58 98.34 -19.58 91.17 -19.56 84 C-19.54 76.6 -19.56 69.21 -19.59 61.81 C-19.62 55.46 -19.62 49.11 -19.62 42.76 C-19.61 38.96 -19.61 35.17 -19.63 31.38 C-19.65 27.81 -19.65 24.25 -19.62 20.68 C-19.61 18.75 -19.63 16.82 -19.65 14.89 C-19.6 10.13 -19.49 6.63 -17.32 2.35 C-11.79 -0.5 -6.1 -0.06 0 0 Z " fill="#BAD2B7" transform="translate(535.982421875,661.368896484375)"/>
<path d="M0 0 C1.07 -0.01 2.14 -0.02 3.24 -0.03 C6.78 -0.05 10.31 -0.03 13.85 -0.02 C16.32 -0.02 18.79 -0.03 21.25 -0.03 C26.43 -0.04 31.61 -0.03 36.79 -0 C43.4 0.02 50 0.01 56.61 -0.02 C61.71 -0.04 66.81 -0.04 71.92 -0.02 C74.35 -0.02 76.78 -0.02 79.21 -0.03 C99.32 -0.11 114.2 1.55 129.6 15.67 C141.12 27.53 144.77 41.85 144.69 57.9 C144.34 72.86 138.97 85.64 128.65 96.51 C125.73 99.27 122.77 101.49 119.39 103.65 C121.03 107.36 123.34 110.33 125.83 113.52 C126.48 114.37 126.48 114.37 127.15 115.23 C129.99 118.88 132.86 122.52 135.72 126.16 C136.66 127.35 137.6 128.55 138.54 129.75 C140.48 132.23 142.43 134.7 144.45 137.13 C148.4 142 148.4 142 148.33 145.58 C147.39 147.65 147.39 147.65 146.39 148.65 C145.03 148.77 143.66 148.83 142.29 148.86 C141.42 148.88 140.54 148.89 139.65 148.91 C135.62 148.97 131.6 149.02 127.58 149.05 C125.47 149.07 123.35 149.11 121.24 149.15 C118.18 149.22 115.13 149.25 112.08 149.27 C111.14 149.3 110.21 149.32 109.24 149.35 C102.22 149.33 97.65 147.31 92.39 142.65 C90.23 140.05 88.47 137.37 86.76 134.46 C86.34 133.77 85.91 133.08 85.48 132.36 C85.04 131.66 84.61 130.95 84.16 130.23 C83.7 129.51 83.25 128.79 82.77 128.05 C81.39 125.65 81.39 125.65 80.21 122.69 C78.61 119.19 77.36 117.13 74.39 114.65 C67.85 112.68 60.7 113.29 53.95 113.46 C52.06 113.47 50.16 113.47 48.27 113.47 C43.64 113.47 39.02 113.54 34.39 113.65 C34.4 114.93 34.4 114.93 34.42 116.25 C34.46 119.44 34.48 122.63 34.5 125.82 C34.51 127.2 34.52 128.58 34.54 129.96 C34.56 131.94 34.57 133.93 34.58 135.91 C34.6 137.7 34.6 137.7 34.62 139.53 C34.4 142.56 34.1 144.17 32.39 146.65 C28.47 149.26 25.08 148.99 20.52 149.02 C19.65 149.03 18.78 149.04 17.88 149.05 C16.04 149.06 14.19 149.07 12.35 149.07 C9.53 149.08 6.72 149.13 3.9 149.18 C2.11 149.19 0.31 149.2 -1.48 149.21 C-2.32 149.23 -3.16 149.24 -4.02 149.26 C-4.81 149.26 -5.6 149.25 -6.42 149.25 C-7.11 149.25 -7.8 149.26 -8.51 149.26 C-12.2 148.18 -13.4 146.83 -15.61 143.65 C-16.37 139.27 -16.29 134.93 -16.26 130.49 C-16.26 129.14 -16.27 127.79 -16.28 126.43 C-16.31 122.77 -16.3 119.1 -16.28 115.44 C-16.27 111.6 -16.28 107.76 -16.29 103.92 C-16.3 97.48 -16.29 91.03 -16.26 84.58 C-16.24 77.14 -16.24 69.69 -16.27 62.24 C-16.29 55.84 -16.3 49.44 -16.28 43.04 C-16.28 39.22 -16.28 35.4 -16.29 31.58 C-16.31 27.99 -16.3 24.4 -16.27 20.8 C-16.26 18.86 -16.27 16.92 -16.29 14.97 C-16.19 6.66 -16.19 6.66 -13.73 2.37 C-9.15 -0.16 -5.16 -0.05 0 0 Z " fill="#000000" transform="translate(717.61083984375,661.35302734375)"/>
<path d="M0 0 C0.75 -0.01 1.5 -0.01 2.28 -0.02 C4.77 -0.04 7.26 -0.05 9.75 -0.06 C10.61 -0.07 11.46 -0.07 12.33 -0.07 C16.84 -0.09 21.35 -0.11 25.85 -0.12 C30.51 -0.13 35.16 -0.16 39.81 -0.2 C43.39 -0.23 46.97 -0.24 50.55 -0.24 C52.26 -0.25 53.98 -0.26 55.69 -0.28 C58.09 -0.3 60.49 -0.3 62.9 -0.29 C63.6 -0.31 64.31 -0.32 65.03 -0.33 C70.04 -0.28 72.87 1.02 76.71 4.18 C81.32 11.56 83.63 20.27 86.4 28.49 C86.93 30.05 87.46 31.61 87.99 33.17 C90.47 40.48 92.92 47.8 95.35 55.13 C95.75 56.34 96.15 57.55 96.57 58.79 C97.3 61.02 98.04 63.24 98.77 65.47 C100.6 71.04 102.59 76.48 104.8 81.9 C106.1 85.16 107.2 88.47 108.27 91.8 C110.04 97.25 111.87 102.66 113.79 108.06 C114.8 110.92 115.81 113.78 116.82 116.64 C117.32 118.07 117.83 119.5 118.35 120.92 C119.08 122.95 119.8 124.99 120.51 127.03 C120.94 128.21 121.36 129.4 121.79 130.62 C123.26 136.32 123.79 140.28 120.75 145.63 C116.72 149 114.14 149.02 109.05 148.9 C108.22 148.9 107.39 148.91 106.54 148.91 C104.8 148.9 103.06 148.88 101.32 148.85 C98.65 148.8 95.99 148.81 93.32 148.82 C91.63 148.81 89.93 148.8 88.24 148.78 C87.44 148.78 86.65 148.78 85.83 148.78 C82.29 148.69 80.14 148.5 77.27 146.35 C75.17 143.43 74.11 140.51 72.96 137.11 C72.53 135.89 72.1 134.66 71.66 133.39 C70.71 130.18 70.71 130.18 70.71 127.18 C44.97 127.51 19.23 127.84 -7.29 128.18 C-9.27 133.79 -11.25 139.4 -13.29 145.18 C-17.77 148.54 -20.33 148.63 -25.64 148.61 C-26.44 148.62 -27.25 148.62 -28.08 148.63 C-29.78 148.63 -31.48 148.63 -33.18 148.62 C-35.78 148.61 -38.38 148.64 -40.98 148.68 C-42.64 148.68 -44.29 148.68 -45.95 148.67 C-46.72 148.68 -47.5 148.7 -48.3 148.71 C-51.88 148.66 -53.88 148.49 -56.75 146.27 C-59.83 142.09 -59.76 138.23 -59.29 133.18 C-58.43 129.56 -57.24 126.11 -55.98 122.61 C-55.67 121.72 -55.36 120.83 -55.04 119.91 C-53.49 115.43 -51.85 110.99 -50.17 106.56 C-47.96 100.58 -45.85 94.56 -43.73 88.55 C-43.47 87.81 -43.2 87.07 -42.93 86.3 C-39.17 75.65 -35.52 64.97 -31.98 54.24 C-28.55 43.84 -24.97 33.53 -21.08 23.3 C-20.26 21.08 -19.48 18.85 -18.71 16.61 C-18.32 15.51 -18.32 15.51 -17.92 14.38 C-17.44 13.01 -16.97 11.63 -16.51 10.25 C-13.51 1.86 -8.19 0.03 0 0 Z " fill="#010101" transform="translate(944.2919921875,661.822998046875)"/>
<path d="M0 0 C1.44 -0.01 2.88 -0.01 4.32 -0.02 C8.23 -0.04 12.14 -0.03 16.04 -0.01 C20.13 0.01 24.23 -0 28.32 -0.01 C35.19 -0.01 42.06 0.01 48.93 0.03 C56.86 0.07 64.8 0.07 72.74 0.05 C80.38 0.03 88.03 0.04 95.67 0.06 C98.92 0.06 102.17 0.06 105.42 0.06 C109.25 0.05 113.07 0.06 116.9 0.09 C118.31 0.09 119.71 0.09 121.11 0.09 C123.03 0.08 124.95 0.1 126.87 0.12 C127.94 0.12 129.02 0.12 130.12 0.12 C133.73 0.75 135.4 2.12 138.02 4.63 C140.12 8.83 139.34 14.27 139.39 18.88 C139.45 20.58 139.45 20.58 139.51 22.31 C139.52 23.41 139.53 24.51 139.54 25.65 C139.56 26.65 139.58 27.65 139.6 28.69 C138.82 32.63 137.22 35.25 134.02 37.63 C130.61 38.49 127.31 38.39 123.81 38.31 C122.27 38.31 122.27 38.31 120.71 38.31 C117.32 38.31 113.94 38.26 110.56 38.22 C108.21 38.21 105.87 38.2 103.52 38.19 C97.35 38.17 91.17 38.11 85 38.04 C78.7 37.98 72.4 37.95 66.1 37.92 C53.74 37.86 41.38 37.75 29.02 37.63 C29.02 45.55 29.02 53.47 29.02 61.63 C33.3 61.6 33.3 61.6 37.67 61.57 C47.11 61.5 56.54 61.46 65.97 61.42 C71.69 61.4 77.41 61.37 83.13 61.33 C88.65 61.29 94.16 61.26 99.68 61.25 C101.79 61.24 103.89 61.23 106 61.21 C108.95 61.18 111.9 61.18 114.84 61.18 C115.72 61.16 116.59 61.15 117.49 61.13 C123.4 61.17 123.4 61.17 126.56 63.52 C129.16 67.28 128.63 71.14 128.58 75.57 C128.6 76.46 128.63 77.36 128.65 78.28 C128.65 79.15 128.65 80.01 128.65 80.91 C128.65 82.09 128.65 82.09 128.65 83.29 C127.67 86.92 125.96 88.32 123.02 90.63 C119.95 91.34 116.96 91.26 113.82 91.2 C112.9 91.2 111.99 91.2 111.04 91.2 C108.02 91.2 104.99 91.16 101.97 91.12 C99.87 91.11 97.77 91.1 95.67 91.1 C90.14 91.08 84.62 91.03 79.1 90.97 C73.46 90.92 67.82 90.9 62.19 90.88 C51.13 90.82 40.07 90.73 29.02 90.63 C29.02 97.23 29.02 103.83 29.02 110.63 C33.65 110.6 33.65 110.6 38.38 110.57 C48.58 110.5 58.79 110.46 69 110.42 C75.18 110.4 81.37 110.37 87.56 110.33 C93.53 110.29 99.5 110.26 105.47 110.25 C107.75 110.24 110.03 110.23 112.31 110.21 C115.5 110.18 118.69 110.18 121.88 110.18 C122.82 110.16 123.76 110.15 124.73 110.13 C130.46 110.17 133.64 110.85 138.02 114.63 C140.18 118.95 139.29 124.7 139.33 129.44 C139.36 130.63 139.39 131.82 139.42 133.05 C139.43 134.2 139.43 135.34 139.44 136.53 C139.47 138.1 139.47 138.1 139.49 139.71 C138.9 143.35 137.55 145 135.02 147.63 C132.33 148.98 130.24 148.77 127.23 148.79 C126 148.8 124.77 148.81 123.5 148.82 C122.12 148.83 120.75 148.83 119.38 148.84 C117.94 148.85 116.49 148.86 115.05 148.87 C110.32 148.9 105.58 148.92 100.84 148.94 C100.04 148.94 99.23 148.95 98.4 148.95 C90.8 148.98 83.21 149.01 75.61 149.02 C65.89 149.05 56.17 149.09 46.45 149.16 C39.62 149.2 32.79 149.23 25.95 149.24 C21.87 149.24 17.79 149.26 13.71 149.3 C9.87 149.33 6.03 149.34 2.19 149.33 C0.78 149.33 -0.63 149.34 -2.04 149.36 C-13.99 149.53 -13.99 149.53 -17.32 146.41 C-20.34 141.4 -19.67 135.09 -19.63 129.45 C-19.64 128.11 -19.65 126.77 -19.66 125.43 C-19.68 121.79 -19.67 118.16 -19.65 114.52 C-19.64 110.72 -19.65 106.91 -19.66 103.1 C-19.67 96.71 -19.66 90.31 -19.63 83.92 C-19.61 76.53 -19.62 69.15 -19.64 61.76 C-19.67 55.41 -19.67 49.06 -19.66 42.72 C-19.65 38.93 -19.65 35.14 -19.66 31.35 C-19.68 27.79 -19.67 24.23 -19.64 20.66 C-19.63 18.74 -19.64 16.81 -19.66 14.88 C-19.6 10.12 -19.49 6.63 -17.32 2.36 C-11.79 -0.5 -6.1 -0.06 0 0 Z " fill="#000000" transform="translate(535.982421875,661.368896484375)"/>
<path d="M0 0 C1.03 -0.01 2.05 -0.02 3.11 -0.03 C6.51 -0.05 9.91 -0.03 13.3 -0.02 C15.68 -0.02 18.05 -0.03 20.42 -0.03 C25.41 -0.04 30.39 -0.03 35.37 -0 C41.72 0.02 48.06 0.01 54.41 -0.02 C59.32 -0.04 64.22 -0.03 69.13 -0.02 C71.47 -0.02 73.81 -0.02 76.14 -0.03 C97.09 -0.12 114.71 2.02 130.6 16.96 C140.61 27.56 145.44 40.18 145.19 54.77 C144.55 69.77 138.8 82.45 128.43 93.24 C115.65 104.9 99.94 107.97 83.23 107.84 C81.82 107.84 80.42 107.84 79.02 107.83 C75.36 107.83 71.7 107.81 68.03 107.78 C64.29 107.76 60.54 107.75 56.79 107.74 C49.46 107.72 42.12 107.69 34.79 107.65 C34.8 109.21 34.8 109.21 34.82 110.8 C34.86 114.66 34.88 118.52 34.9 122.38 C34.91 124.05 34.92 125.72 34.94 127.39 C34.96 129.79 34.97 132.2 34.98 134.6 C34.99 135.35 35 136.09 35.01 136.86 C35.02 143.73 35.02 143.73 32.79 146.65 C29.12 149.5 24.48 149.01 20.04 149.05 C19.19 149.06 18.35 149.08 17.47 149.09 C15.68 149.11 13.89 149.12 12.1 149.13 C9.36 149.15 6.63 149.21 3.9 149.27 C2.15 149.29 0.41 149.3 -1.33 149.3 C-2.15 149.33 -2.96 149.35 -3.8 149.38 C-4.57 149.37 -5.34 149.37 -6.13 149.36 C-7.13 149.37 -7.13 149.37 -8.16 149.38 C-11.73 148.11 -13.62 145.97 -15.21 142.65 C-15.95 138.26 -15.89 133.91 -15.86 129.47 C-15.87 128.13 -15.87 126.78 -15.89 125.44 C-15.91 121.81 -15.9 118.17 -15.88 114.54 C-15.87 110.73 -15.88 106.92 -15.89 103.12 C-15.9 96.72 -15.89 90.33 -15.86 83.94 C-15.84 76.55 -15.85 69.16 -15.87 61.78 C-15.9 55.43 -15.9 49.08 -15.89 42.73 C-15.88 38.94 -15.88 35.15 -15.89 31.36 C-15.91 27.8 -15.9 24.24 -15.87 20.68 C-15.86 18.75 -15.87 16.82 -15.89 14.9 C-15.79 6.64 -15.79 6.64 -13.31 2.37 C-8.84 -0.12 -5.04 -0.05 0 0 Z " fill="#000000" transform="translate(1106.2119140625,661.35302734375)"/>
<path d="M0 0 C0.78 -0.02 1.57 -0.03 2.38 -0.05 C3.21 -0.04 4.04 -0.03 4.9 -0.02 C5.77 -0.02 6.64 -0.03 7.54 -0.03 C9.37 -0.03 11.2 -0.03 13.03 -0 C15.83 0.02 18.63 -0 21.43 -0.04 C23.21 -0.03 24.99 -0.03 26.78 -0.02 C28.03 -0.03 28.03 -0.03 29.3 -0.05 C33.23 0.03 35.43 0.41 38.88 2.42 C41.93 7.44 41.46 12.19 41.33 17.95 C41.32 19 41.32 20.06 41.31 21.15 C41.29 25.09 41.22 29.02 41.15 32.96 C41.05 41.77 40.95 50.57 40.84 59.65 C59.98 59.65 79.12 59.65 98.84 59.65 C98.64 42.1 98.64 42.1 98.39 24.55 C98.37 22.35 98.36 20.15 98.35 17.95 C98.33 16.81 98.3 15.67 98.27 14.49 C98.27 6.58 98.27 6.58 100.8 2.42 C104.94 0 108.19 -0.07 112.9 -0.02 C113.77 -0.02 114.64 -0.03 115.54 -0.03 C117.37 -0.03 119.2 -0.03 121.03 -0 C123.83 0.02 126.63 -0 129.43 -0.04 C131.21 -0.03 132.99 -0.03 134.78 -0.02 C136.03 -0.03 136.03 -0.03 137.3 -0.05 C138.09 -0.03 138.87 -0.02 139.68 0 C140.36 0 141.05 0.01 141.75 0.01 C145.42 1.13 146.63 2.47 148.84 5.65 C149.6 10.03 149.52 14.37 149.49 18.8 C149.49 20.16 149.5 21.51 149.51 22.86 C149.54 26.53 149.53 30.19 149.51 33.86 C149.5 37.69 149.51 41.53 149.52 45.37 C149.53 51.82 149.52 58.26 149.49 64.71 C149.46 72.16 149.47 79.61 149.5 87.06 C149.52 93.45 149.53 99.85 149.51 106.25 C149.51 110.07 149.5 113.89 149.52 117.71 C149.54 121.31 149.53 124.9 149.5 128.49 C149.49 130.43 149.5 132.38 149.52 134.32 C149.41 142.82 149.41 142.82 146.56 146.93 C143.95 148.58 142.7 149.28 139.68 149.31 C138.9 149.33 138.11 149.35 137.3 149.37 C136.47 149.36 135.64 149.35 134.78 149.35 C133.47 149.36 133.47 149.36 132.14 149.37 C130.31 149.38 128.48 149.37 126.65 149.35 C123.85 149.33 121.05 149.37 118.25 149.42 C116.47 149.42 114.69 149.42 112.9 149.41 C112.07 149.42 111.24 149.44 110.38 149.46 C106.11 149.37 104.29 148.99 100.8 146.33 C97.63 141.71 98.22 136.29 98.35 130.9 C98.36 129.91 98.36 128.91 98.37 127.89 C98.39 124.18 98.46 120.48 98.53 116.77 C98.63 108.48 98.73 100.19 98.84 91.65 C79.7 91.65 60.56 91.65 40.84 91.65 C41.04 108.54 41.04 108.54 41.29 125.42 C41.3 127.54 41.32 129.66 41.33 131.78 C41.37 133.43 41.37 133.43 41.41 135.11 C41.41 139.84 41.39 142.76 38.88 146.84 C34.74 149.3 31.51 149.39 26.78 149.35 C25.47 149.36 25.47 149.36 24.14 149.37 C22.31 149.38 20.48 149.37 18.65 149.35 C15.85 149.33 13.05 149.37 10.25 149.42 C8.47 149.42 6.69 149.42 4.9 149.41 C4.07 149.42 3.24 149.44 2.38 149.46 C1.59 149.44 0.81 149.42 0 149.41 C-1.03 149.4 -1.03 149.4 -2.07 149.4 C-5.65 148.11 -7.57 145.99 -9.16 142.65 C-9.9 138.26 -9.84 133.91 -9.81 129.47 C-9.81 128.13 -9.82 126.78 -9.83 125.44 C-9.86 121.81 -9.85 118.17 -9.83 114.54 C-9.82 110.73 -9.83 106.92 -9.84 103.12 C-9.85 96.72 -9.84 90.33 -9.81 83.94 C-9.78 76.55 -9.79 69.16 -9.82 61.78 C-9.84 55.43 -9.85 49.08 -9.83 42.73 C-9.83 38.94 -9.83 35.15 -9.84 31.36 C-9.86 27.8 -9.85 24.24 -9.82 20.68 C-9.81 18.75 -9.82 16.82 -9.84 14.9 C-9.73 6.47 -9.73 6.47 -6.88 2.37 C-4.27 0.71 -3.03 0.02 0 0 Z " fill="#000000" transform="translate(334.16015625,662.35302734375)"/>
<path d="M0 0 C1.37 -0.02 1.37 -0.02 2.76 -0.05 C4.23 -0.05 4.23 -0.05 5.73 -0.05 C7.25 -0.06 7.25 -0.06 8.81 -0.07 C10.96 -0.08 13.11 -0.09 15.26 -0.08 C18.53 -0.08 21.8 -0.12 25.07 -0.17 C27.17 -0.17 29.26 -0.17 31.35 -0.17 C32.32 -0.19 33.29 -0.21 34.29 -0.22 C42.23 -0.14 47.52 2.31 53.65 7.25 C54.18 7.81 54.71 8.37 55.25 8.94 C55.86 9.57 56.47 10.19 57.09 10.84 C58.01 11.81 58.01 11.81 58.94 12.79 C60.24 14.14 61.55 15.49 62.87 16.84 C63.78 17.78 63.78 17.78 64.72 18.75 C67.14 21.19 69.71 23.39 72.34 25.6 C74.09 27.17 75.73 28.78 77.38 30.46 C77.91 31.01 78.45 31.56 79 32.12 C80.06 33.22 81.12 34.32 82.16 35.42 C84.1 37.42 85.97 39.18 88.37 40.58 C91.81 40.3 93.79 37.74 96.12 35.42 C97.28 34.31 98.44 33.2 99.6 32.08 C100.21 31.49 100.82 30.89 101.45 30.28 C104.76 27.08 108.13 23.94 111.5 20.79 C112.85 19.53 114.21 18.26 115.56 16.99 C116.83 15.8 118.1 14.61 119.37 13.42 C119.94 12.89 120.5 12.37 121.07 11.83 C122.57 10.44 124.06 9.05 125.56 7.67 C126.38 6.91 127.2 6.15 128.04 5.37 C133.86 0.5 137.91 -0.03 145.31 0.02 C146.27 0.02 147.23 0.02 148.21 0.01 C150.23 0.01 152.26 0.02 154.28 0.03 C157.36 0.04 160.45 0.03 163.54 0.01 C165.5 0.01 167.47 0.02 169.44 0.02 C170.82 0.01 170.82 0.01 172.23 0 C180.88 0.1 180.88 0.1 184.37 3.42 C184.92 5.85 184.92 5.85 184.37 8.42 C182.83 10.51 182.83 10.51 180.68 12.56 C179.9 13.32 179.12 14.08 178.32 14.87 C177.49 15.65 176.66 16.43 175.81 17.23 C174.2 18.78 172.6 20.33 171 21.88 C170.2 22.64 169.41 23.41 168.59 24.2 C166.65 26.14 164.84 28.12 163.07 30.21 C157.51 36.7 151.27 42.58 145.2 48.57 C136.91 56.68 136.91 56.68 129.29 65.41 C127.37 67.42 127.37 67.42 124.33 69.45 C119.31 72.99 115.99 76.41 114.72 82.59 C113.81 91.45 113.99 100.33 114.2 109.22 C114.3 113.61 114.31 118.01 114.33 122.41 C114.34 125.83 114.37 129.25 114.45 132.67 C114.46 133.89 114.48 135.11 114.5 136.37 C114.53 137.45 114.55 138.52 114.57 139.63 C114.37 142.47 113.9 144.05 112.37 146.42 C108.69 149.29 104.05 148.74 99.59 148.76 C98.74 148.76 97.89 148.77 97.02 148.78 C95.22 148.79 93.43 148.79 91.63 148.79 C88.88 148.79 86.14 148.83 83.39 148.87 C81.65 148.88 79.9 148.88 78.16 148.88 C77.34 148.9 76.52 148.91 75.67 148.92 C69.97 148.88 69.97 148.88 66.89 146.52 C64.32 142.96 64.28 140.97 64.36 136.6 C64.38 135.38 64.4 134.16 64.42 132.9 C64.43 132.24 64.44 131.58 64.45 130.91 C64.51 126.68 64.51 122.46 64.52 118.23 C64.54 114.53 64.57 110.83 64.65 107.13 C65.95 89.08 65.95 89.08 59.39 73.28 C57.42 71.51 55.33 69.97 53.09 68.56 C44.93 63.15 38.15 55.41 31.22 48.54 C30.65 47.98 30.09 47.42 29.5 46.84 C26.52 43.88 23.53 40.91 20.55 37.95 C18.09 35.5 15.63 33.06 13.15 30.63 C10.15 27.68 7.16 24.71 4.18 21.74 C3.04 20.61 1.9 19.48 0.76 18.36 C-0.83 16.8 -2.41 15.23 -3.98 13.65 C-4.88 12.76 -5.78 11.87 -6.71 10.95 C-8.63 8.42 -8.63 8.42 -9.17 5.78 C-8.63 3.42 -8.63 3.42 -6.91 1.63 C-4.38 0.29 -2.86 0.03 0 0 Z " fill="#000000" transform="translate(1267.625732421875,661.580078125)"/>
<path d="M0 0 C1.26 -0.01 2.52 -0.03 3.82 -0.04 C5.21 -0.03 6.6 -0.03 7.99 -0.02 C9.46 -0.03 10.92 -0.03 12.39 -0.04 C16.38 -0.07 20.36 -0.06 24.34 -0.06 C27.67 -0.05 31 -0.06 34.33 -0.07 C42.18 -0.08 50.03 -0.08 57.88 -0.06 C65.97 -0.04 74.07 -0.06 82.16 -0.09 C89.12 -0.12 96.07 -0.13 103.03 -0.12 C107.18 -0.11 111.33 -0.12 115.48 -0.14 C119.39 -0.15 123.29 -0.15 127.2 -0.12 C128.63 -0.12 130.06 -0.12 131.49 -0.14 C143.64 -0.23 143.64 -0.23 147.6 2.87 C150.19 6.06 150.5 7.65 150.51 11.73 C150.51 12.91 150.51 14.09 150.52 15.31 C150.47 17.14 150.47 17.14 150.43 19.01 C150.45 20.85 150.45 20.85 150.48 22.72 C150.39 31.57 150.39 31.57 147.92 35.17 C143.2 38.66 139.04 38.14 133.32 38 C131.66 37.99 131.66 37.99 129.98 37.98 C126.46 37.95 122.95 37.89 119.43 37.83 C117.05 37.8 114.66 37.78 112.27 37.76 C106.43 37.7 100.59 37.62 94.74 37.51 C94.75 38.83 94.76 40.15 94.77 41.51 C94.85 53.91 94.91 66.31 94.95 78.72 C94.97 85.1 95 91.47 95.05 97.85 C95.09 104 95.11 110.16 95.12 116.31 C95.13 118.66 95.15 121.01 95.17 123.36 C95.2 126.64 95.2 129.93 95.2 133.22 C95.21 134.19 95.23 135.16 95.24 136.17 C95.22 140.39 95.1 142.89 92.98 146.62 C90.54 148.69 89.63 149.14 86.48 149.13 C85.24 149.14 85.24 149.14 83.96 149.16 C82.63 149.13 82.63 149.13 81.27 149.11 C79.89 149.11 79.89 149.11 78.49 149.11 C76.54 149.1 74.6 149.09 72.66 149.06 C69.69 149.01 66.72 149.02 63.74 149.02 C61.86 149.01 59.97 149 58.08 148.98 C57.19 148.98 56.3 148.98 55.39 148.98 C54.56 148.97 53.73 148.95 52.88 148.93 C52.15 148.93 51.42 148.92 50.67 148.91 C48.2 148.4 47.32 147.45 45.74 145.51 C44.58 143.18 44.62 141.84 44.62 139.25 C44.62 138.36 44.62 137.46 44.62 136.54 C44.63 135.06 44.63 135.06 44.63 133.56 C44.63 132.52 44.63 131.49 44.63 130.42 C44.63 126.99 44.64 123.56 44.65 120.13 C44.65 117.76 44.65 115.38 44.65 113.01 C44.65 106.75 44.66 100.5 44.68 94.24 C44.69 87.86 44.69 81.48 44.7 75.1 C44.71 62.57 44.72 50.04 44.74 37.51 C44.1 37.52 43.46 37.53 42.8 37.54 C36.11 37.63 29.43 37.69 22.75 37.73 C20.25 37.75 17.76 37.78 15.26 37.82 C11.68 37.86 8.09 37.89 4.51 37.91 C3.39 37.93 2.28 37.95 1.13 37.97 C-0.44 37.97 -0.44 37.97 -2.03 37.97 C-2.94 37.98 -3.86 37.99 -4.8 38 C-8.05 37.36 -9.23 36.08 -11.26 33.51 C-11.98 29.37 -11.87 25.24 -11.83 21.04 C-11.82 19.02 -11.85 17 -11.89 14.98 C-11.89 13.7 -11.89 12.42 -11.88 11.11 C-11.89 9.94 -11.89 8.77 -11.89 7.57 C-11.26 4.51 -11.26 4.51 -9.11 2.36 C-5.75 0.19 -3.96 0.01 0 0 Z " fill="#000000" transform="translate(150.25547790527344,661.4853363037109)"/>
<path d="M0 0 C0.66 0.33 1.32 0.66 2 1 C2 1.99 2 2.98 2 4 C2.72 3.69 3.44 3.38 4.19 3.06 C6.8 2.07 9.25 1.47 12 1 C12.49 2.98 12.49 2.98 13 5 C13.33 4.01 13.66 3.02 14 2 C18.75 2.88 18.75 2.88 21 4 C21 4.66 21 5.32 21 6 C21.99 6 22.98 6 24 6 C24 6.66 24 7.32 24 8 C26.64 8 29.28 8 32 8 C32 8.99 32 9.98 32 11 C33.18 11.15 33.18 11.15 34.38 11.31 C37 12 37 12 39 15 C39 15.99 39 16.98 39 18 C39.76 18.25 40.53 18.5 41.31 18.75 C45.92 20.89 47.38 24.53 49.12 29.12 C50.45 32.61 50.45 32.61 52 36 C51.34 36 50.68 36 50 36 C50 36.66 50 37.32 50 38 C51.32 38 52.64 38 54 38 C54.07 42.07 54.03 45.77 53.44 49.81 C52.76 53.01 52.76 53.01 54 56 C53.72 58.01 53.4 60.01 53 62 C52.34 62 51.68 62 51 62 C50.87 63.25 50.87 63.25 50.74 64.52 C50.6 65.61 50.46 66.69 50.31 67.81 C50.18 68.89 50.06 69.97 49.93 71.08 C48.75 74.78 47.35 75.24 44 77 C42.64 80.08 42.64 80.08 42 83 C41.34 83 40.68 83 40 83 C39.51 84.98 39.51 84.98 39 87 C38.34 87 37.68 87 37 87 C36.9 87.95 36.79 88.9 36.69 89.88 C36 93 36 93 33 95 C31.68 95 30.36 95 29 95 C28.78 95.63 28.55 96.25 28.32 96.89 C26.11 100.43 22.73 100.49 18.86 101.4 C11.2 103 4.77 102.89 -3.02 102.16 C-5.93 101.76 -5.93 101.76 -8 103 C-8 102.34 -8 101.68 -8 101 C-9 101.18 -9 101.18 -10.01 101.36 C-17.28 102.42 -17.28 102.42 -21.12 100.19 C-23 98 -23 98 -23 96 C-23.7 96.08 -24.4 96.16 -25.12 96.25 C-28.99 95.91 -30.99 94.39 -34 92 C-34.33 91.01 -34.66 90.02 -35 89 C-36.65 88.67 -38.3 88.34 -40 88 C-40.12 86.86 -40.12 86.86 -40.25 85.69 C-41.15 82.44 -42.29 81.84 -45 80 C-45 79.34 -45 78.68 -45 78 C-45.25 75.48 -45.25 75.48 -46 73 C-46.99 72.34 -47.98 71.68 -49 71 C-50.99 67.23 -51.1 64.21 -51 60 C-51.33 59.67 -51.66 59.34 -52 59 C-52.12 55.5 -52.12 55.5 -52 52 C-51 51 -51 51 -47.44 50.94 C-46.3 50.96 -45.17 50.98 -44 51 C-44.49 49.51 -44.49 49.51 -45 48 C-45 48.66 -45 49.32 -45 50 C-48.88 48.25 -48.88 48.25 -50 46 C-49.81 44 -49.81 44 -49 42 C-46.94 40.75 -46.94 40.75 -45 40 C-45.37 39.24 -45.74 38.47 -46.12 37.69 C-46.41 36.8 -46.7 35.91 -47 35 C-46.34 34.01 -45.68 33.02 -45 32 C-45 31.01 -45 30.02 -45 29 C-43.35 29 -41.7 29 -40 29 C-40.66 27.68 -41.32 26.36 -42 25 C-40.02 24.67 -38.04 24.34 -36 24 C-36.33 23.01 -36.66 22.02 -37 21 C-36.34 20.01 -35.68 19.02 -35 18 C-34.53 17.28 -34.05 16.56 -33.56 15.81 C-33.05 15.21 -32.53 14.62 -32 14 C-31.01 14 -30.02 14 -29 14 C-29 13.34 -29 12.68 -29 12 C-28.01 11.67 -27.02 11.34 -26 11 C-25.55 10.53 -25.09 10.05 -24.62 9.56 C-22.62 7.64 -20.56 7.01 -18 6 C-17.67 5.34 -17.34 4.68 -17 4 C-16.46 4.19 -15.93 4.37 -15.38 4.56 C-12.39 5.11 -9.98 4.51 -7 4 C-6.01 4.33 -5.02 4.66 -4 5 C-3.34 4.01 -2.68 3.02 -2 2 C-1.34 1.34 -0.68 0.68 0 0 Z " fill="#BCD3B8" transform="translate(1164,453)"/>
<path d="M0 0 C1.23 0.86 2.44 1.76 3.62 2.69 C4.22 3.14 4.81 3.6 5.42 4.07 C14.33 11.9 18.86 24.11 19.62 35.69 C20.65 52.17 18.6 68.31 8.04 81.7 C-1.25 91.75 -14.27 96.6 -27.76 97.16 C-42.13 97.34 -54.8 92.84 -65.56 83.19 C-76.81 71.23 -79.82 55.33 -79.48 39.51 C-79.45 38.58 -79.41 37.65 -79.38 36.69 C-78.38 36.19 -78.38 36.19 -77.38 35.69 C-74.91 37.23 -72.45 38.8 -70 40.38 C-69.3 40.81 -68.6 41.25 -67.88 41.69 C-63.97 44.23 -61.53 45.92 -60.38 50.69 C-59.22 50.25 -59.22 50.25 -58.04 49.81 C-57.04 49.44 -56.03 49.07 -55 48.69 C-54 48.32 -53 47.95 -51.98 47.56 C-49.38 46.69 -49.38 46.69 -47.38 46.69 C-47.77 46.08 -48.17 45.48 -48.58 44.85 C-54.16 36.03 -57.81 27.29 -56.38 16.69 C-54.51 8.99 -50.66 3.47 -44.38 -1.31 C-30.42 -9.22 -13.75 -7.99 0 0 Z " fill="#BCD3B8" transform="translate(761.375,878.3125)"/>
<path d="M0 0 C2.28 1.73 4.46 3.54 6.61 5.43 C7.24 5.98 7.87 6.52 8.52 7.09 C20.65 18.37 25.04 34.3 25.8 50.39 C26.23 69.09 21.93 88.39 8.77 102.46 C-4.75 114.82 -21.75 121.04 -40.08 120.68 C-58.78 119.25 -73.82 113.06 -87 99.43 C-94.14 90.49 -98.39 79.63 -100.39 68.43 C-100.62 67.21 -100.84 66 -101.08 64.74 C-102.18 53.02 -100.09 41.82 -97.39 30.43 C-93.1 29.77 -88.81 29.11 -84.39 28.43 C-83.22 33.1 -84.03 34.89 -85.39 39.43 C-88.29 55.66 -86.71 72.74 -78.06 87.04 C-70.61 97.69 -59.17 104.16 -46.39 106.43 C-31.12 108.09 -16.6 105.12 -4.39 95.43 C5.15 86.88 9.82 73.98 10.76 61.39 C11.49 45.45 9.5 31.04 -0.24 17.94 C-5.09 12.65 -10.71 9.87 -17.39 7.43 C-18.05 7.18 -18.7 6.94 -19.38 6.68 C-28.57 3.83 -39.1 4.41 -47.92 8.1 C-55.04 11.93 -60.58 17.48 -62.97 25.35 C-64.86 34.77 -62.81 43.89 -57.7 51.93 C-57.27 52.56 -56.83 53.19 -56.38 53.84 C-55.39 55.43 -55.39 55.43 -55.39 57.43 C-56.99 58.1 -58.6 58.77 -60.2 59.43 C-61.54 59.99 -61.54 59.99 -62.91 60.55 C-65.39 61.43 -65.39 61.43 -68.39 61.43 C-77.03 50.86 -78.4 38.6 -77.6 25.47 C-76.64 16.07 -70.8 8.34 -63.91 2.23 C-46.61 -11.26 -18.61 -12.23 0 0 Z " fill="#040403" transform="translate(769.390625,867.5703125)"/>
<path d="M0 0 C1.28 0.16 2.55 0.32 3.87 0.48 C8.07 0.95 12.22 1.13 16.45 1.24 C28.32 1.56 39.69 3.21 51.33 5.54 C54.87 6.15 58.44 6.55 62 7 C62 43.3 62 79.6 62 117 C54.08 117 46.16 117 38 117 C37.59 115.27 37.18 113.54 36.76 111.75 C35.15 105.34 33.1 99.16 30.88 92.94 C30.08 90.67 29.28 88.4 28.48 86.13 C28.08 84.97 27.67 83.8 27.25 82.6 C24.76 75.42 22.39 68.2 20.01 60.98 C18.33 55.92 16.63 50.89 14.72 45.91 C10.55 34.87 6.84 23.63 3.06 12.44 C2.76 11.54 2.45 10.64 2.13 9.72 C1.85 8.88 1.57 8.04 1.29 7.18 C1.04 6.45 0.79 5.71 0.53 4.95 C0 3 0 3 0 0 Z " fill="#B9D1B6" transform="translate(1029,685)"/>
<path d="M0 0 C26.73 0 53.46 0 81 0 C81 3.96 81 7.92 81 12 C58.56 12 36.12 12 13 12 C13 26.52 13 41.04 13 56 C33.79 56 54.58 56 76 56 C76 59.63 76 63.26 76 67 C45.31 67.5 45.31 67.5 14 68 C13.67 82.19 13.34 96.38 13 111 C35.44 111 57.88 111 81 111 C81 114.96 81 118.92 81 123 C54.27 123 27.54 123 0 123 C0 82.41 0 41.82 0 0 Z " fill="#000000" transform="translate(944,862)"/>
<path d="M0 0 C0.33 0 0.66 0 1 0 C1.01 1.1 1.03 2.19 1.04 3.32 C1.09 4.78 1.14 6.23 1.19 7.69 C1.19 8.41 1.2 9.13 1.21 9.87 C1.38 14.06 1.61 15.56 4.49 18.83 C5.32 19.55 6.15 20.26 7 21 C7.33 21.99 7.66 22.98 8 24 C10.5 25.22 10.5 25.22 13 26 C12.34 24.68 11.68 23.36 11 22 C16.06 24.71 21.04 27.56 25.94 30.56 C26.85 31.12 27.77 31.68 28.71 32.25 C31.08 34.06 31.9 35.29 33 38 C33.33 38.33 33.66 38.66 34 39 C34.11 41.93 34.15 44.83 34.16 47.75 C34.16 48.67 34.17 49.59 34.17 50.54 C34.18 52.54 34.19 54.54 34.2 56.55 C34.21 59.72 34.23 62.88 34.25 66.05 C34.31 75.06 34.37 84.08 34.4 93.09 C34.42 98.6 34.46 104.1 34.5 109.61 C34.52 111.71 34.53 113.81 34.53 115.91 C34.53 118.85 34.56 121.79 34.58 124.73 C34.58 125.6 34.58 126.47 34.57 127.36 C34.64 132.08 35.01 135.11 38 139 C36.35 139 34.7 139 33 139 C33 138.01 33 137.02 33 136 C31.98 135.64 31.98 135.64 30.95 135.27 C24.58 132.97 18.27 130.56 12 128 C13.49 127.01 13.49 127.01 15 126 C13.61 125.35 12.21 124.7 10.81 124.06 C9.65 123.52 9.65 123.52 8.46 122.97 C5.64 121.77 5.64 121.77 1 121 C1 125.29 1 129.58 1 134 C0.67 134 0.34 134 0 134 C0 89.78 0 45.56 0 0 Z " fill="#B8D0B5" transform="translate(483,670)"/>
<path d="M0 0 C4.62 0 9.24 0 14 0 C18.27 9.08 22.19 18.21 25.89 27.54 C26.43 28.91 26.98 30.29 27.53 31.66 C28.96 35.26 30.39 38.85 31.82 42.45 C34.08 48.14 36.35 53.82 38.61 59.5 C39.45 61.59 40.28 63.68 41.11 65.77 C43.8 72.53 46.51 79.27 49.28 86 C49.67 86.95 49.67 86.95 50.07 87.91 C51.3 90.89 52.53 93.86 53.77 96.83 C54.19 97.87 54.62 98.91 55.06 99.97 C55.44 100.88 55.81 101.78 56.2 102.71 C57 105 57 105 57 108 C57.66 108 58.32 108 59 108 C59.2 106.9 59.2 106.9 59.4 105.78 C59.96 103.2 60.7 100.94 61.68 98.49 C62.02 97.61 62.37 96.74 62.73 95.84 C63.11 94.9 63.49 93.95 63.88 92.98 C64.28 91.97 64.68 90.97 65.09 89.93 C66.41 86.61 67.74 83.3 69.07 79.98 C69.98 77.68 70.9 75.38 71.82 73.07 C74.23 67.02 76.65 60.96 79.07 54.91 C81.54 48.73 84.01 42.55 86.47 36.37 C91.31 24.24 96.15 12.12 101 0 C105.95 0 110.9 0 116 0 C114.08 5.9 112.01 11.67 109.66 17.41 C109.17 18.6 109.17 18.6 108.68 19.81 C107.62 22.42 106.56 25.02 105.5 27.62 C104.75 29.47 104 31.32 103.25 33.17 C101.66 37.08 100.07 40.99 98.48 44.91 C94.32 55.12 90.19 65.34 86.06 75.56 C85.66 76.56 85.26 77.55 84.84 78.58 C78.86 93.37 72.9 108.17 67 123 C61.06 123 55.12 123 49 123 C38.66 97.74 28.32 72.47 18.02 47.2 C14.46 38.46 10.89 29.73 7.29 21.01 C6.76 19.72 6.23 18.43 5.7 17.14 C4.77 14.88 3.83 12.62 2.89 10.37 C2.5 9.41 2.11 8.46 1.7 7.48 C1.37 6.67 1.04 5.87 0.69 5.04 C0 3 0 3 0 0 Z " fill="#030403" transform="translate(806,862)"/>
<path d="M0 0 C1.22 0.01 2.43 0.01 3.69 0.02 C13.85 0.17 23.5 1.15 33.19 4.38 C33.19 9 33.19 13.62 33.19 18.38 C31.13 17.96 31.13 17.96 29.02 17.54 C27.2 17.17 25.38 16.8 23.56 16.44 C22.66 16.26 21.76 16.07 20.82 15.88 C18.28 15.37 15.73 14.87 13.19 14.38 C12.16 14.17 11.13 13.97 10.07 13.77 C-7.05 11.45 -21.63 14.77 -35.94 24.5 C-42.18 30.01 -46.6 38.41 -48.81 46.38 C-49.02 47.07 -49.22 47.77 -49.43 48.49 C-50.78 53.98 -51.02 59.38 -51.06 65 C-51.07 65.7 -51.08 66.41 -51.09 67.13 C-51.02 79.32 -46.26 92.51 -37.81 101.38 C-25.02 112.81 -9.97 115.33 6.7 114.56 C12.92 114.1 19.03 112.93 25.15 111.74 C28.48 111.15 31.83 110.76 35.19 110.38 C35.19 114.66 35.19 118.96 35.19 123.38 C24.54 126.36 14.98 127.61 3.92 127.67 C2.4 127.68 0.88 127.7 -0.64 127.73 C-19.13 128.09 -35.04 123.18 -48.81 110.38 C-62.31 96.56 -66.25 79.89 -66.18 61.14 C-65.88 44.67 -60.48 29.47 -48.97 17.37 C-34.93 4.42 -18.83 -0.22 0 0 Z " fill="#040403" transform="translate(614.8125,859.625)"/>
<path d="M0 0 C22.44 0 44.88 0 68 0 C68 0.33 68 0.66 68 1 C62.39 1 56.78 1 51 1 C51.77 4.44 52.54 7.88 53.31 11.31 C53.54 12.32 53.77 13.34 54 14.38 C55.14 19.4 56.34 24.37 57.81 29.31 C59.16 33.99 59.24 38.15 59 43 C60.32 43.33 61.64 43.66 63 44 C42.21 44 21.42 44 0 44 C0 29.48 0 14.96 0 0 Z " fill="#B7CEB3" transform="translate(957,874)"/>
<path d="M0 0 C10.09 -0.12 10.09 -0.12 20.38 -0.25 C22.48 -0.29 24.58 -0.32 26.74 -0.36 C28.44 -0.37 30.14 -0.38 31.84 -0.39 C32.69 -0.41 33.55 -0.43 34.43 -0.45 C42.2 -0.46 48.97 1.47 55 6.5 C59.69 12.36 59.75 17.66 59 25 C57.45 30.67 55.2 35.01 50 38 C41.92 41.39 34.85 43.16 26.07 43.1 C25.41 43.1 24.75 43.1 24.06 43.09 C21.61 43.09 19.15 43.08 16.69 43.06 C8.43 43.03 8.43 43.03 0 43 C0 28.81 0 14.62 0 0 Z " fill="#F7EACD" transform="translate(752,700)"/>
<path d="M0 0 C14.96 7.97 14.96 7.97 17.44 12.81 C17.62 13.53 17.81 14.26 18 15 C18.74 14.94 19.48 14.88 20.24 14.82 C23.49 15.03 24.62 15.8 27.12 17.81 C27.79 18.33 28.45 18.86 29.13 19.39 C31 21 31 21 32.35 22.48 C34.22 24.2 35.86 24.98 38.2 25.94 C38.99 26.28 39.79 26.61 40.61 26.96 C42.29 27.66 43.98 28.35 45.66 29.04 C46.46 29.38 47.25 29.71 48.07 30.06 C49.16 30.51 49.16 30.51 50.28 30.97 C52 32 52 32 53 35 C55.3 36.06 55.3 36.06 58 37 C59.79 37.98 61.55 39 63.3 40.04 C64.28 40.62 65.25 41.2 66.26 41.8 C67.27 42.4 68.27 43 69.31 43.62 C70.34 44.24 71.37 44.85 72.42 45.48 C74.95 46.98 77.48 48.49 80 50 C76.45 53.95 73.48 55.96 68.5 57.75 C67.4 58.16 66.29 58.56 65.16 58.98 C51.56 63.36 37.01 61.82 24.26 55.68 C11.96 48.84 5.34 38.9 0.9 25.73 C-1.26 17.56 -1.58 9.41 -1 1 C-0.67 0.67 -0.34 0.34 0 0 Z " fill="#F6E9CC" transform="translate(683,914)"/>
<path d="M0 0 C6.41 -0.06 12.83 -0.12 19.44 -0.19 C21.44 -0.21 23.45 -0.24 25.52 -0.27 C27.14 -0.28 28.75 -0.29 30.37 -0.29 C31.6 -0.32 31.6 -0.32 32.85 -0.34 C39.93 -0.34 46.68 0.91 52.38 5.38 C56.81 9.81 58.43 13.06 58.44 19.38 C58.26 26.48 56.89 30.11 51.81 35.19 C44.75 39.74 38.75 41.6 30.37 41.39 C29.59 41.39 28.82 41.38 28.02 41.38 C25.16 41.36 22.3 41.3 19.44 41.25 C9.82 41.13 9.82 41.13 0 41 C0 27.47 0 13.94 0 0 Z " fill="#B9CFB5" transform="translate(1141,699)"/>
<path d="M0 0 C7.59 0 15.18 0 23 0 C25.28 7.21 27.56 14.41 29.84 21.62 C30.61 24.08 31.39 26.53 32.16 28.98 C33.28 32.51 34.39 36.03 35.5 39.55 C35.85 40.65 36.2 41.75 36.56 42.88 C36.88 43.91 37.2 44.93 37.53 45.98 C37.82 46.88 38.1 47.78 38.39 48.7 C39 51 39 51 39 54 C20.52 54 2.04 54 -17 54 C-15.87 46.12 -15.87 46.12 -14.53 42.11 C-14.23 41.21 -13.93 40.32 -13.63 39.4 C-13.31 38.46 -12.99 37.51 -12.66 36.54 C-12.33 35.56 -12 34.57 -11.66 33.56 C-10.97 31.49 -10.27 29.42 -9.57 27.36 C-8.5 24.18 -7.43 21.01 -6.37 17.83 C-5.7 15.82 -5.02 13.81 -4.34 11.79 C-4.02 10.84 -3.7 9.89 -3.37 8.91 C-3.08 8.03 -2.78 7.15 -2.47 6.25 C-2.08 5.09 -2.08 5.09 -1.68 3.9 C-1 2 -1 2 0 0 Z " fill="#B6CEB3" transform="translate(965,705)"/>
<path d="M0 0 C1.23 0.86 2.44 1.76 3.62 2.69 C4.22 3.14 4.81 3.6 5.42 4.07 C14.32 11.89 18.87 24.12 19.62 35.69 C20.11 48.72 20.11 48.72 18.62 51.69 C17.97 51.69 17.3 51.69 16.62 51.69 C16.58 50.83 16.58 50.83 16.54 49.96 C15.13 46.45 12.13 45.11 9 43.25 C7.72 42.46 6.44 41.67 5.17 40.88 C4.55 40.5 3.94 40.12 3.31 39.73 C-4.9 34.63 -4.9 34.63 -6.38 31.69 C-8.39 30.55 -8.39 30.55 -10.38 29.69 C-10.38 29.03 -10.38 28.37 -10.38 27.69 C-11.03 27.69 -11.7 27.69 -12.38 27.69 C-12.62 27.05 -12.87 26.41 -13.12 25.75 C-13.54 25.07 -13.95 24.39 -14.38 23.69 C-14.97 23.56 -15.57 23.44 -16.19 23.31 C-19.04 22.5 -19.93 20.84 -21.7 18.57 C-25.93 13.83 -31.32 9.99 -36.39 6.18 C-38.98 4.19 -40.26 3.05 -41.25 -0.12 C-41.29 -0.85 -41.33 -1.57 -41.38 -2.31 C-28.13 -9.24 -12.83 -7.45 0 0 Z " fill="#F6E9CD" transform="translate(761.375,878.3125)"/>
<path d="M0 0 C2.05 0.03 4.1 0.07 6.15 0.1 C6.47 1.01 6.79 1.93 7.11 2.87 C7.58 4.22 8.06 5.56 8.53 6.91 C8.78 7.64 9.04 8.37 9.3 9.13 C11.07 14.14 12.9 19.12 14.78 24.1 C15.23 25.3 15.68 26.51 16.15 27.75 C17.06 30.17 17.98 32.59 18.9 35.01 C19.32 36.12 19.74 37.24 20.18 38.4 C20.56 39.4 20.94 40.4 21.33 41.43 C22.15 44.1 22.15 44.1 22.15 48.1 C19.84 48.1 17.53 48.1 15.15 48.1 C14.48 46.14 13.82 44.18 13.15 42.22 C12.78 41.13 12.41 40.04 12.03 38.92 C11.15 36.1 11.15 36.1 11.15 34.1 C4.55 34.1 -2.05 34.1 -8.85 34.1 C-9.18 36.08 -9.51 38.06 -9.85 40.1 C-10.73 42.82 -11.79 45.43 -12.85 48.1 C-15.16 48.1 -17.47 48.1 -19.85 48.1 C-17.34 39.05 -14.03 30.35 -10.69 21.59 C-9.71 19.01 -8.74 16.43 -7.77 13.85 C-7.14 12.21 -6.52 10.57 -5.9 8.94 C-5.61 8.16 -5.32 7.39 -5.02 6.6 C-2.55 0.13 -2.55 0.13 0 0 Z " fill="#3A3A38" transform="translate(649.84765625,1151.90234375)"/>
<path d="M0 0 C8 0 8 0 9.84 1.46 C10.23 2.14 10.62 2.82 11.02 3.52 C11.48 4.29 11.94 5.06 12.41 5.84 C12.87 6.68 13.34 7.51 13.81 8.38 C14.56 9.64 14.56 9.64 15.33 10.94 C16.37 12.71 17.41 14.49 18.43 16.28 C20.43 19.75 22.53 23.16 24.64 26.57 C26.77 30.04 28.88 33.52 31 37 C31.33 24.79 31.66 12.58 32 0 C33.98 0 35.96 0 38 0 C38 15.84 38 31.68 38 48 C31 48 31 48 29.21 46.48 C28.75 45.72 28.29 44.97 27.81 44.19 C27.24 43.29 26.68 42.39 26.09 41.46 C25.77 40.93 25.45 40.39 25.12 39.85 C23.8 37.67 22.44 35.53 21.07 33.39 C18.02 28.61 15 23.81 12 19 C10.35 16.36 8.7 13.72 7 11 C6.67 23.21 6.34 35.42 6 48 C4.02 48 2.04 48 0 48 C0 32.16 0 16.32 0 0 Z " fill="#363635" transform="translate(850,1152)"/>
<path d="M0 0 C11.22 0 22.44 0 34 0 C34 1.98 34 3.96 34 6 C24.76 6 15.52 6 6 6 C6 10.62 6 15.24 6 20 C14.58 20 23.16 20 32 20 C32 21.98 32 23.96 32 26 C23.42 26 14.84 26 6 26 C6 31.28 6 36.56 6 42 C15.57 42 25.14 42 35 42 C35 43.98 35 45.96 35 48 C23.45 48 11.9 48 0 48 C0 32.16 0 16.32 0 0 Z " fill="#333333" transform="translate(796,1152)"/>
<path d="M0 0 C2.31 0 4.62 0 7 0 C7 6.6 7 13.2 7 20 C15.25 20 23.5 20 32 20 C32 13.4 32 6.8 32 0 C33.98 0 35.96 0 38 0 C38 15.84 38 31.68 38 48 C36.02 48 34.04 48 32 48 C32 40.74 32 33.48 32 26 C23.75 26 15.5 26 7 26 C7 33.26 7 40.52 7 48 C4.69 48 2.38 48 0 48 C0 32.16 0 16.32 0 0 Z " fill="#373736" transform="translate(736,1152)"/>
<path d="M0 0 C2.86 2.13 4.65 3.58 5.52 7.1 C5.78 9.06 5.9 11.03 6 13 C4.02 13 2.04 13 0 13 C-0.45 11.89 -0.91 10.77 -1.38 9.62 C-2.72 6.04 -2.72 6.04 -5 4 C-9.5 2.33 -14.34 2.49 -18.88 3.88 C-21.15 4.82 -21.15 4.82 -22 7 C-22.42 9.96 -22.42 9.96 -22 13 C-18.02 17.28 -11.46 17.78 -6 19.02 C-1.11 20.2 2.34 21.34 6 25 C7.84 28.69 7.36 32.97 7 37 C5.03 41.64 2.22 43.97 -2.3 46.07 C-8.87 48.34 -16.63 47.55 -23 45 C-27.64 42.15 -29.27 39.11 -31 34 C-31 32.68 -31 31.36 -31 30 C-29.02 30 -27.04 30 -25 30 C-24.84 30.63 -24.68 31.25 -24.52 31.9 C-24.29 32.72 -24.05 33.53 -23.81 34.38 C-23.59 35.19 -23.37 36 -23.14 36.84 C-22.15 39.18 -22.15 39.18 -19.73 40.27 C-13.75 41.88 -8.08 41.81 -2.31 39.56 C0.3 36.67 0.35 35.98 0.38 32.25 C0.28 30.83 0.16 29.41 0 28 C-0.57 27.83 -1.14 27.66 -1.73 27.48 C-3.46 26.97 -5.2 26.44 -6.93 25.92 C-9.08 25.28 -11.23 24.66 -13.38 24.05 C-14.51 23.72 -15.65 23.4 -16.81 23.06 C-17.87 22.76 -18.93 22.47 -20.02 22.16 C-23.87 20.66 -27.11 18.78 -29 15 C-29.63 11.07 -29.79 7.51 -27.91 3.92 C-20.98 -4.85 -9.35 -4.96 0 0 Z " fill="#393938" transform="translate(938,1154)"/>
<path d="M0 0 C12.87 0 25.74 0 39 0 C39 1.98 39 3.96 39 6 C33.72 6 28.44 6 23 6 C23 19.86 23 33.72 23 48 C20.69 48 18.38 48 16 48 C16 34.14 16 20.28 16 6 C10.72 6 5.44 6 0 6 C0 4.02 0 2.04 0 0 Z " fill="#393938" transform="translate(681,1152)"/>
<path d="M0 0 C10.8 0 16 4.64 23.69 11.84 C25.62 13.64 27.58 15.34 29.62 17 C30.41 17.66 31.19 18.32 32 19 C32 19.33 32 19.66 32 20 C21.44 20 10.88 20 0 20 C0 13.4 0 6.8 0 0 Z " fill="#BED4BA" transform="translate(565,752)"/>
<path d="M0 0 C-2.3 7.13 -4.93 14.09 -7.69 21.06 C-8.1 22.12 -8.52 23.18 -8.95 24.26 C-9.96 26.84 -10.98 29.42 -12 32 C-12.66 32 -13.32 32 -14 32 C-15.57 28.03 -17.14 24.06 -18.7 20.09 C-19.23 18.74 -19.77 17.39 -20.3 16.04 C-21.07 14.1 -21.83 12.16 -22.59 10.22 C-23.05 9.05 -23.52 7.89 -23.99 6.68 C-25 4 -25 4 -25 3 C-22.85 2.81 -20.71 2.62 -18.56 2.44 C-16.77 2.28 -16.77 2.28 -14.94 2.12 C-13.97 2.08 -13 2.04 -12 2 C-11.67 2.33 -11.34 2.66 -11 3 C-10.37 2.78 -9.75 2.57 -9.1 2.34 C-8.28 2.07 -7.47 1.79 -6.62 1.5 C-5.81 1.22 -5 0.94 -4.16 0.66 C-2 0 -2 0 0 0 Z " fill="#BBD1B7" transform="translate(877,938)"/>
<path d="M0 0 C5.83 -0.12 11.67 -0.21 17.5 -0.27 C19.49 -0.3 21.47 -0.33 23.45 -0.38 C26.31 -0.44 29.17 -0.47 32.03 -0.49 C32.91 -0.51 33.79 -0.54 34.69 -0.57 C41.02 -0.57 45.07 1.02 50 5 C53.32 8.4 54 9.16 54 14 C52.81 13.72 51.61 13.45 50.38 13.16 C48.77 12.79 47.17 12.43 45.56 12.06 C44.78 11.88 44 11.7 43.19 11.51 C37.8 10.29 32.5 9.52 27 9 C26.67 8.01 26.34 7.02 26 6 C24.44 5.84 24.44 5.84 22.85 5.67 C14.96 4.79 7.51 3.71 0 1 C0 0.67 0 0.34 0 0 Z " fill="#F3E8CB" transform="translate(1144,700)"/>
<path d="M0 0 C2.67 2.67 3.36 5.33 4.62 8.88 C5.29 10.73 5.29 10.73 5.98 12.62 C7 16 7 16 7 20 C2.38 20 -2.24 20 -7 20 C-6.2 15.21 -5.25 11.63 -3.5 7.19 C-3.06 6.05 -2.61 4.91 -2.16 3.73 C-1 1 -1 1 0 0 Z " fill="#EEE2C7" transform="translate(651,1161)"/>
<path d="M0 0 C7.59 0 15.18 0 23 0 C23 3.63 23 7.26 23 11 C14.56 8.86 7.52 5.3 0 1 C0 0.67 0 0.34 0 0 Z " fill="#C8D9BF" transform="translate(410,754)"/>
<path d="M0 0 C0.81 0.11 1.62 0.22 2.45 0.34 C3.37 0.48 3.37 0.48 4.31 0.62 C3.98 1.28 3.65 1.95 3.31 2.62 C11.73 4.11 11.73 4.11 20.31 5.62 C10.79 10.39 0.88 6.75 -8.69 3.62 C-6.64 -0.48 -4.09 -0.59 0 0 Z " fill="#C6D8BE" transform="translate(217.6875,584.375)"/>
<path d="M0 0 C4.79 0.49 8.53 1.16 13 3 C13.66 2.67 14.32 2.34 15 2 C17.16 2.34 17.16 2.34 19.62 2.94 C20.44 3.13 21.26 3.33 22.1 3.53 C23.04 3.76 23.04 3.76 24 4 C23.67 4.66 23.34 5.32 23 6 C14.25 8.37 7.74 4.8 0 1 C0 0.67 0 0.34 0 0 Z " fill="#E9E5C9" transform="translate(796,937)"/>
<path d="M0 0 C0.5 0.31 0.99 0.62 1.5 0.94 C-1.14 1.27 -3.78 1.6 -6.5 1.94 C-6.5 2.27 -6.5 2.6 -6.5 2.94 C-12.91 3.37 -18.39 1.79 -24.5 -0.06 C-24.5 -0.39 -24.5 -0.72 -24.5 -1.06 C-23.82 -1.05 -23.15 -1.04 -22.45 -1.03 C-21.56 -1.02 -20.67 -1.01 -19.75 -1 C-18.87 -0.99 -17.99 -0.98 -17.08 -0.96 C-14.56 -0.97 -14.56 -0.97 -12.42 -1.59 C-8.29 -2.61 -3.85 -1.64 0 0 Z " fill="#EAE6C9" transform="translate(248.5,592.0625)"/>
<path d="M0 0 C9.28 -0.23 17.87 0.1 27 2 C27 2.33 27 2.66 27 3 C8.66 3.38 8.66 3.38 0 1 C0 0.67 0 0.34 0 0 Z " fill="#E4E3C7" transform="translate(1028,684)"/>
<path d="M0 0 C1.48 0.11 2.96 0.24 4.44 0.38 C5.26 0.44 6.08 0.51 6.93 0.59 C7.96 0.79 7.96 0.79 9 1 C9.33 1.66 9.66 2.32 10 3 C11.89 3.68 11.89 3.68 14.06 4.12 C14.8 4.29 15.53 4.46 16.29 4.63 C16.85 4.75 17.42 4.88 18 5 C16 7 16 7 14.05 7.05 C9.48 6.46 5.33 5.66 1 4 C1.33 3.34 1.66 2.68 2 2 C1.34 1.34 0.68 0.68 0 0 Z " fill="#DFE2C6" transform="translate(196,578)"/>
<path d="M0 0 C1 2 1 2 0.38 3.86 C-1.4 6.62 -3.52 8.25 -6.12 10.25 C-7.04 10.96 -7.95 11.66 -8.88 12.39 C-9.58 12.92 -10.28 13.45 -11 14 C-11.66 13.34 -12.32 12.68 -13 12 C-12.31 11.39 -11.63 10.77 -10.92 10.14 C-10.02 9.33 -9.12 8.52 -8.19 7.69 C-7.29 6.89 -6.4 6.09 -5.48 5.26 C-3.6 3.55 -1.77 1.82 0 0 Z " fill="#CED6BC" transform="translate(910,722)"/>
<path d="M0 0 C4.29 0 8.58 0 13 0 C12.67 0.99 12.34 1.98 12 3 C5.65 4.22 5.65 4.22 2.62 3.19 C1 2 1 2 0 0 Z " fill="#C8D9BF" transform="translate(179,577)"/>
<path d="M0 0 C0.66 0.33 1.32 0.66 2 1 C2 2.32 2 3.64 2 5 C1.01 5 0.02 5 -1 5 C-0.67 6.65 -0.34 8.3 0 10 C-3.88 8.25 -3.88 8.25 -5 6 C-4.81 4 -4.81 4 -4 2 C-2.06 0.69 -2.06 0.69 0 0 Z " fill="#D4DDC2" transform="translate(1119,493)"/>
<path d="M0 0 C1.46 0.09 2.92 0.2 4.38 0.31 C5.59 0.4 5.59 0.4 6.84 0.49 C9 1 9 1 11 4 C6.48 5.37 3.41 4.47 -1 3 C-0.67 2.01 -0.34 1.02 0 0 Z " fill="#C8D9BE" transform="translate(239,593)"/>
<path d="M0 0 C2.95 -0.22 5.68 -0.28 8.62 -0.19 C9.43 -0.17 10.23 -0.16 11.05 -0.15 C13.04 -0.11 15.02 -0.06 17 0 C17 0.33 17 0.66 17 1 C10.62 2.17 4.5 3.3 -2 3 C-1.34 2.01 -0.68 1.02 0 0 Z " fill="#E0E2C6" transform="translate(914,1025)"/>
<path d="M0 0 C5.86 0.26 9.66 0.66 14 5 C11 6 11 6 8 5 C8 4.34 8 3.68 8 3 C7.05 2.88 6.1 2.75 5.12 2.62 C2 2 2 2 0 0 Z " fill="#CAD9BF" transform="translate(162,572)"/>
<path d="M0 0 C1 0.02 2 0.05 3.02 0.07 C4.53 0.1 4.53 0.1 6.06 0.12 C6.83 0.15 7.6 0.17 8.4 0.2 C8.4 0.53 8.4 0.86 8.4 1.2 C6.75 1.53 5.1 1.86 3.4 2.2 C3.4 2.53 3.4 2.86 3.4 3.2 C0.76 2.87 -1.88 2.54 -4.6 2.2 C-2.6 0.2 -2.6 0.2 0 0 Z " fill="#E8E5C9" transform="translate(178.6015625,575.8046875)"/>
<path d="M0 0 C1.98 0.99 3.96 1.98 6 3 C6 3.66 6 4.32 6 5 C3.62 4.69 3.62 4.69 1 4 C0.34 3.01 -0.32 2.02 -1 1 C-0.67 0.67 -0.34 0.34 0 0 Z " fill="#D8DFC4" transform="translate(511,803)"/>
<path d="M0 0 C1 3 1 3 1 5 C-0.65 5.66 -2.3 6.32 -4 7 C-4 5.35 -4 3.7 -4 2 C-2.68 1.34 -1.36 0.68 0 0 Z " fill="#D7DEC3" transform="translate(1128,534)"/>
<path d="M0 0 C8.57 0.86 8.57 0.86 12 3 C7.07 4.64 4.46 3.19 0 1 C0 0.67 0 0.34 0 0 Z " fill="#E3E3C7" transform="translate(238,590)"/>
</svg>
